<?xml version="1.0" encoding="UTF-8"?>
<svg version="1.1" xmlns="http://www.w3.org/2000/svg" width="2000" height="647">
<path d="M0 0 C660 0 1320 0 2000 0 C2000 213.51 2000 427.02 2000 647 C1340 647 680 647 0 647 C0 433.49 0 219.98 0 0 Z " fill="#FEFEFE" transform="translate(0,0)"/>
<path d="M0 0 C175.72067039 0 175.72067039 0 216 35 C216.94101563 35.78503906 217.88203125 36.57007813 218.8515625 37.37890625 C243.83231904 58.74103106 259.34199314 92.61101305 262.78173828 125.04980469 C266.02150821 168.84105731 257.69852046 209.92743228 229 244 C228.37351562 244.76183594 227.74703125 245.52367187 227.1015625 246.30859375 C206.67621354 270.36048426 176.00326434 282.51468875 146 289 C144.89914062 289.23847656 143.79828125 289.47695313 142.6640625 289.72265625 C96.00858697 298.95797765 47.56074598 292 0 292 C0 195.64 0 99.28 0 0 Z " fill="#8D0B41" transform="translate(1287,83)"/>
<path d="M0 0 C23.76 0 47.52 0 72 0 C75.63 5.61 79.26 11.22 83 17 C84.88359308 19.88208738 86.76871176 22.76245672 88.6640625 25.63671875 C89.37067017 26.71016541 89.37067017 26.71016541 90.09155273 27.80529785 C91.60209483 30.0997656 93.1135468 32.39363235 94.625 34.6875 C95.71279972 36.3395523 96.80052583 37.99165307 97.88818359 39.64379883 C100.13870946 43.06220143 102.38954479 46.48039993 104.640625 49.8984375 C109.45126845 57.20333427 114.2586687 64.51036454 119.06585693 71.8175354 C120.63124893 74.19699864 122.19672648 76.57640557 123.76220703 78.95581055 C130.20626355 88.75069847 136.64697723 98.54777747 143.08511353 108.34655762 C151.31830499 120.87738872 159.55272704 133.40741061 167.79150391 145.93457031 C168.87090187 147.57592124 169.95017072 149.21735708 171.02929688 150.85888672 C172.53869427 153.15486479 174.04858724 155.45051625 175.55859375 157.74609375 C175.99106918 158.40415512 176.42354462 159.06221649 176.86912537 159.74021912 C180.88614044 165.84499529 184.94605151 171.91907726 189 178 C189.495 89.89 189.495 89.89 190 0 C213.76 0 237.52 0 262 0 C262 96.36 262 192.72 262 292 C238.24 292 214.48 292 190 292 C176.63433645 277.08864746 169.52705056 268.70571866 162.16403198 251.55114746 C159.15778316 244.96251058 155.01504434 239.00478155 151 233 C150.01896619 231.51339357 149.03852125 230.02639841 148.05859375 228.5390625 C145.36739241 224.46790675 142.65528952 220.411094 139.93670654 216.35818481 C136.86481601 211.77778905 133.80148959 207.19167371 130.73828125 202.60546875 C130.1038208 201.65574692 129.46936035 200.70602509 128.81567383 199.7275238 C121.79024765 189.20229729 114.83056965 178.6339656 107.875 168.0625 C97.84937641 152.82797902 87.78970656 137.61778155 77.64624023 122.46142578 C75.76118941 119.64293514 73.88085955 116.82128933 72 114 C71.67 172.74 71.34 231.48 71 292 C47.57 292 24.14 292 0 292 C0 195.64 0 99.28 0 0 Z " fill="#8D0C41" transform="translate(974,83)"/>
<path d="M0 0 C27.39 0 54.78 0 83 0 C86.40045235 8.16108564 89.62983214 16.26928659 92.59765625 24.58203125 C93.25238046 26.4033492 93.9071064 28.22466652 94.56190014 30.04595947 C95.25409116 31.9729811 95.94482834 33.90051802 96.63513184 35.82821655 C98.8384111 41.98047372 101.05112354 48.12934152 103.26280594 54.27858162 C104.02223852 56.39034063 104.7813189 58.50222603 105.54037476 60.61412048 C110.40746381 74.15174938 115.32496355 87.67084881 120.25 101.1875 C127.34936817 120.68014519 134.40171261 140.18919946 141.4206543 159.7109375 C142.15802244 161.7617252 142.89540842 163.81250648 143.6328125 165.86328125 C143.99532608 166.87145905 144.35783966 167.87963684 144.7313385 168.91836548 C150.39409995 184.66180129 156.09297093 200.39219935 161.78826904 216.12388611 C164.0163091 222.27917399 166.24143005 228.43550989 168.46455383 234.59257507 C170.00193523 238.85042859 171.54000891 243.10803191 173.07809448 247.3656311 C173.8042816 249.37639414 174.53014472 251.38727423 175.25564575 253.39828491 C176.26719166 256.20204538 177.27990502 259.0053814 178.29296875 261.80859375 C178.60897537 262.68480881 178.92498199 263.56102386 179.25056458 264.46379089 C180.73811991 268.57484364 182.24834554 272.67424047 183.81884766 276.75439453 C184.10141922 277.49134048 184.38399078 278.22828644 184.67512512 278.98756409 C185.19892582 280.34679598 185.7283555 281.70387876 186.26469421 283.05821228 C187.52381951 286.32437928 188 288.42298535 188 292 C163.25 292 138.5 292 113 292 C107.39 275.5 101.78 259 96 242 C59.7 241.67 23.4 241.34 -14 241 C-14.66 243.97 -15.32 246.94 -16 250 C-16.46519592 251.59999272 -16.95710569 253.19294869 -17.49633789 254.76953125 C-17.77324966 255.58647461 -18.05016144 256.40341797 -18.33546448 257.24511719 C-18.62823776 258.09235352 -18.92101105 258.93958984 -19.22265625 259.8125 C-19.52819931 260.70743164 -19.83374237 261.60236328 -20.14854431 262.52441406 C-20.78919164 264.39743612 -21.43217059 266.26966218 -22.07739258 268.14111328 C-23.06864795 271.01784202 -24.05144647 273.8973612 -25.03320312 276.77734375 C-25.65836148 278.6017314 -26.28399522 280.42595624 -26.91015625 282.25 C-27.20495377 283.11343018 -27.49975128 283.97686035 -27.80348206 284.86645508 C-29.8843098 290.8843098 -29.8843098 290.8843098 -31 292 C-33.30053835 292.09443335 -35.60402173 292.11742128 -37.90649414 292.11352539 C-38.62840439 292.11367142 -39.35031464 292.11381744 -40.09410095 292.1139679 C-42.49114947 292.11326869 -44.88812123 292.10547595 -47.28515625 292.09765625 C-48.94282489 292.0957921 -50.60049407 292.09436818 -52.25816345 292.09336853 C-56.62954214 292.08954312 -61.00088781 292.07971265 -65.37225342 292.06866455 C-69.82954461 292.05845092 -74.28684111 292.05387101 -78.74414062 292.04882812 C-87.49610893 292.0380904 -96.24805036 292.02101371 -105 292 C-103.22671364 285.19200514 -101.25057274 278.54859741 -98.8046875 271.953125 C-98.34814034 270.70449928 -98.34814034 270.70449928 -97.88237 269.4306488 C-97.22662174 267.63878324 -96.56884724 265.8476581 -95.90921021 264.05722046 C-94.84681034 261.17348308 -93.78977601 258.28782781 -92.73413086 255.40161133 C-91.61958466 252.3544178 -90.50475443 249.30733229 -89.38835144 246.26081848 C-85.77029531 236.3862659 -82.1899433 226.49824519 -78.61715698 216.60723877 C-77.19282207 212.66407437 -75.76740311 208.72130213 -74.34205627 204.77850342 C-73.62473793 202.79419213 -72.90748324 200.80985784 -72.19029236 198.82550049 C-69.76912403 192.12656345 -67.34606996 185.42831106 -64.921875 178.73046875 C-58.85308336 161.96153477 -52.78762371 145.1914338 -46.7421875 128.4140625 C-37.60519665 103.05783946 -28.45702849 77.70589774 -19.25 52.375 C-18.85179047 51.27865234 -18.45358093 50.18230469 -18.04330444 49.05273438 C-17.65671661 47.98861328 -17.27012878 46.92449219 -16.87182617 45.828125 C-16.53873947 44.91111816 -16.20565277 43.99411133 -15.86247253 43.04931641 C-10.62780898 28.67875911 -5.31228073 14.34315796 0 0 Z " fill="#8D0C41" transform="translate(374,83)"/>
<path d="M0 0 C27.72 0 55.44 0 84 0 C89.07375 14.1384375 89.07375 14.1384375 94.25 28.5625 C101.89477432 49.84904983 109.57046245 71.12359816 117.3125 92.375 C123.53142438 109.44712423 129.72644448 126.52739693 135.875 143.625 C136.23737762 144.63259369 136.59975525 145.64018738 136.97311401 146.67831421 C138.46456076 150.82553247 139.95583987 154.97281096 141.44691467 159.12016296 C145.55236024 170.53848938 149.66331092 181.95483041 153.77813625 193.36977959 C154.93910095 196.59045868 156.09973741 199.81125517 157.259552 203.03234863 C162.16887774 216.66631199 167.09674764 230.29292325 172.08982086 243.89647102 C172.8014346 245.83595665 173.5121832 247.77575689 174.22259521 249.71568298 C174.45287666 250.34447011 174.68315811 250.97325724 174.92041779 251.62109852 C175.14857933 252.24411696 175.37674088 252.86713541 175.61181641 253.5090332 C177.37349076 258.3189763 179.14398486 263.12554689 180.91943359 267.93041992 C181.71355731 270.09671741 182.50735826 272.26313326 183.30078125 274.4296875 C183.66320419 275.40282394 184.02562714 276.37596039 184.39903259 277.37858582 C184.72923904 278.28474136 185.0594455 279.19089691 185.3996582 280.12451172 C185.68637894 280.90204803 185.97309967 281.67958435 186.26850891 282.48068237 C187.16780558 285.5779367 187.54389214 288.80724501 188 292 C163.25 292 138.5 292 113 292 C107.33333333 275 101.66666667 258 96 241 C60.03 240.67 24.06 240.34 -13 240 C-13.99 243.3 -14.98 246.6 -16 250 C-16.53173059 251.66685605 -17.07092939 253.33140349 -17.62573242 254.99072266 C-17.90960815 255.842229 -18.19348389 256.69373535 -18.48596191 257.57104492 C-18.77289917 258.42674072 -19.05983643 259.28243652 -19.35546875 260.1640625 C-19.62766235 260.97963623 -19.89985596 261.79520996 -20.18029785 262.63549805 C-21.18103804 265.63255367 -22.1844162 268.62872794 -23.1875 271.625 C-26.5596875 281.710625 -26.5596875 281.710625 -30 292 C-54.42 292 -78.84 292 -104 292 C-103.30025074 287.10175521 -102.71199501 283.6748421 -101.0925293 279.203125 C-100.69590088 278.09770355 -100.29927246 276.9922821 -99.890625 275.85336304 C-99.45621094 274.66425323 -99.02179688 273.47514343 -98.57421875 272.25 C-98.11441695 270.97657607 -97.65520303 269.70293975 -97.1965332 268.42910767 C-95.95928128 264.99830546 -94.71369845 261.57058262 -93.4665184 258.14337921 C-92.154215 254.53272788 -90.84969761 250.91926485 -89.54418945 247.30615234 C-86.62196494 239.22356199 -83.68824415 231.14517281 -80.75164795 223.0677948 C-79.58118665 219.84783818 -78.41173597 216.62751485 -77.2421875 213.40722656 C-73.90446728 204.21874509 -70.56438967 195.03112643 -67.21826172 185.84570312 C-61.71694624 170.7421687 -56.25106213 155.62624059 -50.8125 140.5 C-50.44306274 139.47250641 -50.07362549 138.44501282 -49.69299316 137.38638306 C-49.32540894 136.36402557 -48.95782471 135.34166809 -48.57910156 134.28833008 C-47.84181552 132.23778626 -47.10451092 130.18724912 -46.3671875 128.13671875 C-46.00467896 127.12855606 -45.64217041 126.12039337 -45.26867676 125.0816803 C-41.33805715 114.1538801 -37.38933466 103.23264299 -33.4375 92.3125 C-32.91829987 90.87778854 -32.91829987 90.87778854 -32.38861084 89.41409302 C-30.99342719 85.55898887 -29.5981385 81.70392277 -28.20266724 77.84892273 C-25.61276561 70.69409925 -23.02474531 63.53859692 -20.4375 56.3828125 C-19.67651579 54.27823817 -18.91552948 52.17366459 -18.15454102 50.0690918 C-17.06801819 47.06420986 -15.98153589 44.05931332 -14.89523315 41.05435181 C-14.56105377 40.12996307 -14.22687439 39.20557434 -13.88256836 38.25317383 C-13.59393417 37.45470535 -13.30529999 36.65623688 -13.00791931 35.83357239 C-8.68525821 23.88410361 -4.34265517 11.94230173 0 0 Z " fill="#8D0B41" transform="translate(1676,83)"/>
<path d="M0 0 C0.86244324 0.0012085 1.72488647 0.00241699 2.61346436 0.00366211 C34.32803491 0.12417998 64.03235671 7.30466448 87.0625 30.375 C96.58909516 40.05776885 102.75540704 50.50439279 107.0625 63.375 C107.41634766 64.38433594 107.41634766 64.38433594 107.77734375 65.4140625 C109.92457505 72.5297049 109.60128954 79.99563256 110.0625 87.375 C84.6525 87.375 59.2425 87.375 33.0625 87.375 C32.0725 83.415 31.0825 79.455 30.0625 75.375 C25.41445938 66.53238613 19.69203363 62.51034034 10.4375 59 C0.41473701 57.04433893 -11.02311044 57.01230017 -19.9375 62.375 C-24.36947031 65.8434985 -27.42613957 69.94857293 -28.9375 75.375 C-29.7982554 83.11382866 -30.56328051 91.35925144 -25.453125 97.7890625 C-24.95296875 98.31242187 -24.4528125 98.83578125 -23.9375 99.375 C-23.49921875 99.87773437 -23.0609375 100.38046875 -22.609375 100.8984375 C-10.07364129 113.36819366 11.4360121 118.01382549 27.56982422 123.58642578 C70.97433988 138.6195586 70.97433988 138.6195586 87.0625 151.375 C87.81402344 151.95765625 88.56554687 152.5403125 89.33984375 153.140625 C102.41187522 163.87926122 111.41994845 179.67205001 114.0625 196.375 C115.99000944 220.71959235 111.63897452 243.64062756 95.9296875 263.00390625 C93.7088219 265.53816926 91.42488973 267.97243357 89.0625 270.375 C88.38703125 271.06335938 87.7115625 271.75171875 87.015625 272.4609375 C80.48803928 278.66950587 72.91286381 283.06247825 65.0625 287.375 C64.03382813 287.94476563 63.00515625 288.51453125 61.9453125 289.1015625 C44.4183057 297.97887763 24.81441616 299.60593622 5.5 299.625 C4.79006897 299.62600708 4.08013794 299.62701416 3.34869385 299.62805176 C-7.37440538 299.61777161 -17.50697735 299.06897605 -27.9375 296.375 C-29.75121094 295.92253906 -29.75121094 295.92253906 -31.6015625 295.4609375 C-57.66016335 288.47791374 -80.08861762 275.38768701 -94.9375 252.375 C-103.09756452 238.17949605 -105.9375 225.86870309 -105.9375 209.375 C-80.8575 209.375 -55.7775 209.375 -29.9375 209.375 C-29.2775 212.675 -28.6175 215.975 -27.9375 219.375 C-24.48678005 228.63745881 -18.81093102 234.99969232 -9.9375 239.375 C1.62667206 243.36888373 15.05078541 242.70646363 26.0625 237.375 C31.46945519 234.44437684 35.22807518 231.02455704 37.43359375 225.19921875 C39.06631018 217.86720647 39.90382104 208.4588845 36 201.75 C34.61787488 199.94877751 34.61787488 199.94877751 33.0625 198.375 C32.61261719 197.87226563 32.16273438 197.36953125 31.69921875 196.8515625 C18.53697765 183.99542003 -1.90155015 179.78367756 -18.9375 174.375 C-48.63187438 164.9150121 -81.43380117 153.98448007 -97.62890625 125.03515625 C-108.68125532 102.56754515 -108.40174092 78.62798296 -100.91015625 55.15625 C-93.04933439 33.89566419 -75.48026794 19.89902001 -55.6875 10.1875 C-50.69779469 7.97587941 -45.6551218 6.20074058 -40.4375 4.625 C-39.78620117 4.42624268 -39.13490234 4.22748535 -38.46386719 4.02270508 C-25.78572145 0.40325892 -13.08218462 -0.03386973 0 0 Z " fill="#8D0B41" transform="translate(129.9375,78.625)"/>
<path d="M0 0 C0.81959198 0.00215515 1.63918396 0.0043103 2.48361206 0.00653076 C14.5019719 0.05728137 26.16329338 0.36991372 37.875 3.3125 C38.68098633 3.50585938 39.48697266 3.69921875 40.31738281 3.8984375 C56.38010311 7.86061594 70.25566673 14.52420725 82.875 25.3125 C83.844375 26.08464844 84.81375 26.85679688 85.8125 27.65234375 C99.49906854 39.09282337 108.3574005 57.88806133 110.875 75.3125 C110.875 79.2725 110.875 83.2325 110.875 87.3125 C85.465 87.3125 60.055 87.3125 33.875 87.3125 C33.215 84.0125 32.555 80.7125 31.875 77.3125 C29.32212618 70.38609817 25.18917234 66.00230941 18.875 62.3125 C18.18019531 61.89871094 17.48539063 61.48492187 16.76953125 61.05859375 C8.03213103 56.74252858 -2.86607661 57.06539198 -12.26171875 58.9375 C-18.37071469 61.03308207 -22.70431599 64.85106701 -26.125 70.3125 C-29.00990138 77.32145502 -29.36814533 85.39499476 -27.5078125 92.75390625 C-23.87206386 100.97455915 -15.66599409 106.13029979 -7.8125 109.8125 C-6.95640137 110.21919922 -6.10030273 110.62589844 -5.21826172 111.04492188 C5.91471806 116.0934048 17.5578887 119.84118018 29.11248779 123.79101562 C61.87097995 134.99371416 93.80083731 146.83849755 110.33203125 179.4296875 C114.43294143 188.98980425 115.35548991 198.50965199 115.25 208.8125 C115.26160156 209.94558594 115.27320313 211.07867187 115.28515625 212.24609375 C115.20591577 235.30507414 104.74133402 254.94248477 89.25 271.375 C65.26460103 294.80858764 32.44472167 299.88996936 0.35931396 299.68606567 C-30.87420773 299.25259951 -61.42962943 287.96635333 -83.70849609 265.79052734 C-98.43719226 250.42211532 -105.125 230.28598409 -105.125 209.3125 C-80.045 209.3125 -54.965 209.3125 -29.125 209.3125 C-28.135 213.2725 -27.145 217.2325 -26.125 221.3125 C-23.07600212 229.28680215 -18.12757462 234.45388593 -10.69140625 238.703125 C0.10508943 243.37010334 13.45854613 242.81778917 24.28515625 238.5703125 C31.62234963 235.00684905 36.06868163 231.06637387 38.875 223.3125 C39.70992354 220.88790213 39.70992354 220.88790213 39.875 218.3125 C39.94976563 217.66796875 40.02453125 217.0234375 40.1015625 216.359375 C40.60729111 208.74682862 37.93467215 202.90372537 33.03125 197.1484375 C23.08658722 187.53773727 9.47152419 183.17855975 -3.42382812 179.05654907 C-5.80960061 178.29343616 -8.19036725 177.51619196 -10.5703125 176.73510742 C-13.69824063 175.70916177 -16.82733829 174.68698345 -19.95800781 173.66943359 C-49.69402868 163.9962197 -82.11852187 152.94466944 -97.4375 123.25 C-103.06901315 111.32894363 -104.32358197 100.94980539 -104.375 87.8125 C-104.395625 86.52601563 -104.41625 85.23953125 -104.4375 83.9140625 C-104.48468819 72.18779713 -103.15864006 60.71937449 -97.5625 50.25 C-97.21735352 49.58790527 -96.87220703 48.92581055 -96.51660156 48.24365234 C-84.18310444 25.38008945 -63.60055889 12.190686 -39.33203125 4.41796875 C-26.33078582 0.60952312 -13.44119746 -0.06347312 0 0 Z " fill="#8D0B41" transform="translate(692.125,78.6875)"/>
<path d="M0 0 C23.43 0 46.86 0 71 0 C71 96.36 71 192.72 71 292 C47.57 292 24.14 292 0 292 C0 195.64 0 99.28 0 0 Z " fill="#8D0B41" transform="translate(1897,83)"/>
<path d="M0 0 C23.43 0 46.86 0 71 0 C71 96.36 71 192.72 71 292 C47.57 292 24.14 292 0 292 C0 195.64 0 99.28 0 0 Z " fill="#8D0B41" transform="translate(851,83)"/>
<path d="M0 0 C72.46153846 0 72.46153846 0 96.625 22.4375 C97.800625 23.7059375 97.800625 23.7059375 99 25 C99.51949219 25.50273437 100.03898437 26.00546875 100.57421875 26.5234375 C115.48702828 41.87190214 119.18584346 63.75188177 119.29516602 84.25097656 C119.30661237 85.73610009 119.32694605 87.22118491 119.35668945 88.70605469 C119.79477409 110.68370848 113.62470658 132.0612925 98.125 148.3125 C70.87133318 173.8727351 35.59199266 171 0 171 C0 114.57 0 58.14 0 0 Z " fill="#FEFCFD" transform="translate(1358,143)"/>
<path d="M0 0 C7.90878754 5.81757508 7.90878754 5.81757508 10 10 C10.33 5.38 10.66 0.76 11 -4 C15.62 -4 20.24 -4 25 -4 C25.06967971 7.69218077 25.12290238 19.38431169 25.15543652 31.07665825 C25.1710556 36.50658405 25.19222506 41.93636721 25.22631836 47.36621094 C25.259046 52.61170977 25.27688124 57.85707185 25.28463173 63.10266495 C25.29015123 65.09842199 25.30092922 67.09417202 25.31719017 69.08987045 C25.33914278 71.89715172 25.34195952 74.70387643 25.34057617 77.51123047 C25.351362 78.32619492 25.36214783 79.14115936 25.3732605 79.9808197 C25.31883829 90.26661746 21.93484746 100.38623102 15.09765625 108.1640625 C6.10968038 116.84322907 -2.88173787 119.41812581 -15.125 119.5 C-16.0430542 119.50644531 -16.9611084 119.51289062 -17.90698242 119.51953125 C-29.07949186 119.31139135 -38.67533594 116.13133372 -46.7890625 108.265625 C-51.62124143 102.88595781 -54.18371677 98.35887728 -54 91 C-49.57844259 90.53389146 -45.4041462 90.30007456 -41 91 C-39.0596149 92.79731523 -38.27216597 94.4441227 -37.15625 96.828125 C-34.82548049 101.20619204 -30.58342696 103.8988672 -26.09375 105.8125 C-17.94119791 108.21817111 -9.72487228 107.93282854 -2.0703125 104.265625 C4.24504564 100.4049155 7.53543027 96.31148041 9.58984375 89.15527344 C11.08223333 81.31312153 10.34423327 72.93537124 10 65 C9.54181885 65.54414551 9.0836377 66.08829102 8.61157227 66.64892578 C7.99854248 67.3654834 7.3855127 68.08204102 6.75390625 68.8203125 C6.1513501 69.52945801 5.54879395 70.23860352 4.92797852 70.96923828 C-1.07416 77.29135911 -8.70560557 80.19714513 -17.31884766 80.43139648 C-28.99390891 80.46229597 -38.52099488 78.35301632 -47.25390625 70.01953125 C-57.48458063 58.18673784 -59.79989783 45.31996079 -59.17041016 30.20605469 C-58.35624409 19.66622001 -52.72730457 10.0454826 -44.8671875 3.12109375 C-31.10375485 -6.72050056 -14.9757322 -8.18100625 0 0 Z " fill="#060606" transform="translate(1307,511)"/>
<path d="M0 0 C2.89729751 2.2286904 5.33975962 4.73125721 7.828125 7.40625 C8.323125 0.97125 8.323125 0.97125 8.828125 -5.59375 C13.448125 -5.59375 18.068125 -5.59375 22.828125 -5.59375 C22.828125 21.79625 22.828125 49.18625 22.828125 77.40625 C18.208125 77.40625 13.588125 77.40625 8.828125 77.40625 C8.498125 73.11625 8.168125 68.82625 7.828125 64.40625 C7.209375 65.2725 6.590625 66.13875 5.953125 67.03125 C0.94343064 73.05430134 -7.35343111 77.77040103 -15.17358398 78.625 C-28.01802408 79.3185911 -37.86976053 77.93341432 -48.06640625 69.5234375 C-57.4146586 60.12315406 -61.22227213 48.27603434 -61.484375 35.28125 C-61.37717493 23.13190906 -57.44932937 13.05087623 -49.1015625 4.21484375 C-35.36649686 -8.77843263 -15.89504513 -10.59669675 0 0 Z " fill="#050505" transform="translate(1207.171875,512.59375)"/>
<path d="M0 0 C2.89729751 2.2286904 5.33975962 4.73125721 7.828125 7.40625 C8.323125 0.97125 8.323125 0.97125 8.828125 -5.59375 C13.448125 -5.59375 18.068125 -5.59375 22.828125 -5.59375 C22.828125 21.79625 22.828125 49.18625 22.828125 77.40625 C18.208125 77.40625 13.588125 77.40625 8.828125 77.40625 C8.498125 73.11625 8.168125 68.82625 7.828125 64.40625 C7.209375 65.2725 6.590625 66.13875 5.953125 67.03125 C0.94343064 73.05430134 -7.35343111 77.77040103 -15.17358398 78.625 C-28.01802408 79.3185911 -37.86976053 77.93341432 -48.06640625 69.5234375 C-57.4146586 60.12315406 -61.22227213 48.27603434 -61.484375 35.28125 C-61.37717493 23.13190906 -57.44932937 13.05087623 -49.1015625 4.21484375 C-35.36649686 -8.77843263 -15.89504513 -10.59669675 0 0 Z " fill="#050505" transform="translate(1009.171875,512.59375)"/>
<path d="M0 0 C7.41538551 6.3698024 13.21146876 14.93656524 15 24.6875 C15.7108646 39.81403749 14.2822753 52.33763099 4.375 64.4375 C-2.62444228 71.91327484 -12.23796111 76.50707857 -22.48828125 77.0234375 C-31.32672344 77.18876088 -39.17404421 77.29691616 -47 72.6875 C-47.77472656 72.26339844 -48.54945313 71.83929687 -49.34765625 71.40234375 C-58.00041779 66.21646496 -63.89144311 58.26386074 -67 48.6875 C-69.95339333 34.89834602 -69.06528941 21.46861232 -61.578125 9.39453125 C-55.36628329 0.49423117 -46.81080867 -5.67961457 -36.06640625 -7.92578125 C-22.92014502 -9.58371738 -10.92792682 -7.98086448 0 0 Z " fill="#050505" transform="translate(355,514.3125)"/>
<path d="M0 0 C4.95 0 9.9 0 15 0 C22.58920742 16.27080076 29.98638391 32.61744941 37.25 49.03588867 C37.92052299 50.55129162 38.5910951 52.06667284 39.26171875 53.58203125 C39.58530365 54.3132872 39.90888855 55.04454315 40.24227905 55.79795837 C42.1439213 60.08876783 44.06856764 64.36802901 46.01953125 68.63671875 C46.44790283 69.57531738 46.87627441 70.51391602 47.31762695 71.48095703 C48.07826573 73.14170336 48.84337188 74.80041467 49.61401367 76.45654297 C52 81.67087143 52 81.67087143 52 85 C52.66 85 53.32 85 54 85 C54.17400833 84.44733963 54.34801666 83.89467926 54.52729797 83.32527161 C56.26939867 77.92977591 58.30636311 72.7877053 60.66796875 67.63671875 C61.02032089 66.85823074 61.37267303 66.07974274 61.73570251 65.27766418 C62.49109233 63.60985739 63.24845169 61.94294145 64.00762939 60.27685547 C66.0254055 55.84862446 68.02899736 51.41397154 70.03515625 46.98046875 C70.6503714 45.62264786 70.6503714 45.62264786 71.27801514 44.23739624 C75.6062421 34.67863643 79.87039354 25.09170401 84.125 15.5 C84.82444959 13.92406636 85.52391211 12.34813846 86.22338867 10.7722168 C87.81675343 7.18199077 89.40834345 3.59098536 91 0 C95.95 0 100.9 0 106 0 C106 34.32 106 68.64 106 104 C101.71 104 97.42 104 93 104 C92.67 78.92 92.34 53.84 92 28 C89.339375 34.06375 86.67875 40.1275 83.9375 46.375 C81.87495896 51.07212678 79.81193833 55.76904178 77.74853516 60.46578979 C75.72840497 65.06428218 73.70884188 69.66302006 71.69140625 74.26269531 C69.9357284 78.26548729 68.17786906 82.26731355 66.41824341 86.26837158 C65.76464557 87.755598 65.11187379 89.24318772 64.45993042 90.73114014 C63.55747862 92.79046774 62.65216059 94.84851095 61.74609375 96.90625 C61.23747803 98.06447266 60.7288623 99.22269531 60.20483398 100.41601562 C59 103 59 103 58 104 C56.31391034 104.07205511 54.62499341 104.08386068 52.9375 104.0625 C51.55884766 104.04896484 51.55884766 104.04896484 50.15234375 104.03515625 C49.08693359 104.01775391 49.08693359 104.01775391 48 104 C45.54758611 98.60579095 43.09829487 93.2101765 40.65136719 87.81347656 C39.82628866 85.99476866 39.00049178 84.1763864 38.17382812 82.35839844 C30.27252373 64.97942104 22.65348874 47.49368855 15 30 C14.67 54.42 14.34 78.84 14 104 C9.38 104 4.76 104 0 104 C0 69.68 0 35.36 0 0 Z " fill="#040404" transform="translate(824,486)"/>
<path d="M0 0 C8.20373754 6.43125118 11.62410904 13.43393615 14.125 23.4375 C14.125 29.0475 14.125 34.6575 14.125 40.4375 C-7.655 40.4375 -29.435 40.4375 -51.875 40.4375 C-48.12154026 53.59074033 -48.12154026 53.59074033 -39.375 62.25 C-31.19900773 66.13359633 -23.2009881 66.91084876 -14.5625 63.875 C-9.81054679 61.75629475 -6.63908847 58.83352263 -3.875 54.4375 C-3.545 53.4475 -3.215 52.4575 -2.875 51.4375 C2.075 51.4375 7.025 51.4375 12.125 51.4375 C10.46659228 59.72953862 5.7499243 66.19117267 -0.875 71.4375 C-12.11042013 78.24205022 -24.06337752 78.70843555 -36.890625 77.046875 C-46.78744952 74.55670625 -55.07243818 67.63024245 -60.4375 59.10546875 C-67.00683649 46.91292303 -68.27010834 32.29215717 -64.375 18.9375 C-60.0478142 8.15722875 -53.36091494 0.48627386 -42.875 -4.5625 C-28.51370851 -10.37788509 -12.8441625 -8.54522833 0 0 Z " fill="#050505" transform="translate(1663.875,513.5625)"/>
<path d="M0 0 C8.15962239 5.6299852 13.69202325 13.92886627 15.62890625 23.61328125 C15.62890625 29.55328125 15.62890625 35.49328125 15.62890625 41.61328125 C-6.15109375 41.61328125 -27.93109375 41.61328125 -50.37109375 41.61328125 C-45.88226767 55.79001009 -45.88226767 55.79001009 -35.37109375 64.61328125 C-28.37534134 67.95216308 -20.26300068 67.58264673 -13.05859375 65.05078125 C-6.99319791 62.35076403 -3.95668782 57.99167236 -0.37109375 52.61328125 C2.88671875 52.3203125 2.88671875 52.3203125 6.75390625 52.42578125 C8.67589844 52.46638672 8.67589844 52.46638672 10.63671875 52.5078125 C11.62414062 52.54261719 12.6115625 52.57742188 13.62890625 52.61328125 C12.79569611 60.48248809 8.28440572 66.36394839 2.44921875 71.55078125 C-8.29022068 79.19451038 -20.58076048 79.92280232 -33.37109375 78.61328125 C-37.0621781 77.74505272 -40.10673713 76.52299595 -43.37109375 74.61328125 C-44.42296875 74.01515625 -45.47484375 73.41703125 -46.55859375 72.80078125 C-55.24978209 66.0409681 -62.20156206 57.4033717 -64.12109375 46.24609375 C-65.42750704 32.48792874 -64.51467681 20.29668166 -56.125 8.7109375 C-50.24807747 1.68219052 -44.14586384 -2.70427608 -35.37109375 -5.38671875 C-34.7678125 -5.57621094 -34.16453125 -5.76570313 -33.54296875 -5.9609375 C-21.57553399 -8.30707129 -10.47943125 -6.12882717 0 0 Z " fill="#050505" transform="translate(598.37109375,512.38671875)"/>
<path d="M0 0 C8.37810308 7.05245386 13.46620264 14.45601318 15.625 25.25 C15.625 30.53 15.625 35.81 15.625 41.25 C-6.155 41.25 -27.935 41.25 -50.375 41.25 C-48.14276058 51.29507739 -45.97947263 57.34496976 -37.375 63.25 C-30.11405436 67.13923222 -22.4622115 67.36756221 -14.625 65.0625 C-7.65199527 62.42606358 -4.78767272 59.07534545 -1.375 52.25 C3.575 52.25 8.525 52.25 13.625 52.25 C11.45986554 61.19922244 6.81995828 67.54426309 -0.71875 72.921875 C-11.7158384 79.32428948 -25.22886007 80.10815738 -37.5859375 77.59765625 C-48.598585 73.55042144 -56.77049705 65.09119199 -61.6875 54.625 C-66.08980562 44.6315805 -66.26649712 29.41184841 -62.75 19.125 C-61.62890625 16.6015625 -61.62890625 16.6015625 -60.375 14.25 C-59.73884766 13.05503906 -59.73884766 13.05503906 -59.08984375 11.8359375 C-53.78360112 2.99712665 -45.27456056 -3.29782515 -35.3125 -5.9375 C-23.22999988 -8.30542716 -10.29614662 -7.26086641 0 0 Z " fill="#040404" transform="translate(1414.375,512.75)"/>
<path d="M0 0 C4.0214979 3.41472294 6.53104858 6.07172176 8.24609375 11.12890625 C8.90609375 11.12890625 9.56609375 11.12890625 10.24609375 11.12890625 C10.61734375 10.01708984 10.61734375 10.01708984 10.99609375 8.8828125 C13.78368032 2.74141084 19.92341536 -1.57958941 25.93359375 -4.37109375 C35.16639648 -7.58250339 44.92721907 -6.82558188 53.84765625 -3.05859375 C61.6082601 0.78378991 66.81409351 5.90458113 70.02479553 14.12187195 C72.41828959 21.27083577 72.63795216 27.86191559 72.5390625 35.35546875 C72.53481766 36.58429779 72.53057281 37.81312683 72.52619934 39.07919312 C72.50952165 42.97099515 72.47188879 46.86226298 72.43359375 50.75390625 C72.41853286 53.40624248 72.40484692 56.05858689 72.39257812 58.7109375 C72.35965373 65.1837969 72.30794643 71.65626126 72.24609375 78.12890625 C67.62609375 78.12890625 63.00609375 78.12890625 58.24609375 78.12890625 C58.24198486 76.51516113 58.23787598 74.90141602 58.23364258 73.23876953 C58.21177689 67.2187561 58.15740847 61.19938934 58.09350586 55.1796875 C58.0703909 52.58046696 58.05594553 49.98115363 58.05053711 47.38183594 C58.04120063 43.63287963 58.00010242 39.88537001 57.953125 36.13671875 C57.95705765 34.98527374 57.9609903 33.83382874 57.96504211 32.64749146 C57.81046062 23.9879954 55.97924598 16.95778033 49.80859375 10.62890625 C42.92814208 6.60132478 35.74998205 6.09043676 27.96875 7.55859375 C22.63843346 9.21600503 19.10545749 12.36330001 16.24609375 17.12890625 C13.08304554 23.99130665 12.77722453 30.00669045 12.734375 37.50390625 C12.7074482 39.25151245 12.7074482 39.25151245 12.67997742 41.03442383 C12.62606867 44.73254852 12.59204021 48.43054556 12.55859375 52.12890625 C12.52540363 54.64585102 12.49091241 57.16277899 12.45507812 59.6796875 C12.37035294 65.82933471 12.3034486 71.97894533 12.24609375 78.12890625 C7.95609375 78.12890625 3.66609375 78.12890625 -0.75390625 78.12890625 C-0.76848877 76.57051025 -0.78307129 75.01211426 -0.7980957 73.40649414 C-0.85628545 67.59718452 -0.93351752 61.78825413 -1.01635742 55.97924805 C-1.04950957 53.47019631 -1.07757139 50.96107173 -1.1003418 48.4519043 C-1.13406595 44.83480944 -1.18639252 41.21837623 -1.2421875 37.6015625 C-1.24857742 36.48870377 -1.25496735 35.37584503 -1.2615509 34.22926331 C-1.40576579 26.50332952 -2.08378654 19.5619173 -6.94140625 13.31640625 C-13.656034 8.093918 -18.91844336 6.37699507 -27.5625 6.6875 C-33.35130602 7.48815493 -37.67502673 9.56029068 -41.37890625 14.13671875 C-44.4693833 18.89535102 -45.86781308 22.81137541 -45.95922852 28.51831055 C-45.97917374 29.61922531 -45.99911896 30.72014008 -46.01966858 31.85441589 C-46.03638107 33.0419899 -46.05309357 34.2295639 -46.0703125 35.453125 C-46.0910936 36.66966263 -46.11187469 37.88620026 -46.13328552 39.13960266 C-46.19875342 43.03181221 -46.2576534 46.9240901 -46.31640625 50.81640625 C-46.35959407 53.45248107 -46.40320845 56.08854894 -46.44726562 58.72460938 C-46.55443207 65.19263801 -46.65570751 71.6607355 -46.75390625 78.12890625 C-51.37390625 78.12890625 -55.99390625 78.12890625 -60.75390625 78.12890625 C-60.75390625 50.73890625 -60.75390625 23.34890625 -60.75390625 -4.87109375 C-56.13390625 -4.87109375 -51.51390625 -4.87109375 -46.75390625 -4.87109375 C-46.42390625 -1.57109375 -46.09390625 1.72890625 -45.75390625 5.12890625 C-44.55765625 4.03578125 -43.36140625 2.94265625 -42.12890625 1.81640625 C-30.37023046 -8.44910436 -12.98925718 -8.82532509 0 0 Z " fill="#050505" transform="translate(1508.75390625,511.87109375)"/>
<path d="M0 0 C2.56032218 2.56032218 3.10365474 4.79831857 4.25561523 8.23681641 C4.58067802 9.1989077 4.58067802 9.1989077 4.91230774 10.18043518 C5.63332898 12.31897469 6.34589058 14.46023791 7.05859375 16.6015625 C7.56691996 18.11406616 8.07580595 19.62638178 8.58522034 21.13851929 C9.93587422 25.15228841 11.27956912 29.16835269 12.62164307 33.18499756 C14.7279537 39.48439009 16.8457402 45.77994157 18.96113968 52.07628632 C19.74553315 54.4123929 20.52865787 56.74892193 21.31161499 59.08551025 C23.92235791 66.86985025 26.55648365 74.64526702 29.23876953 82.40527344 C29.49764607 83.15471663 29.75652262 83.90415981 30.0232439 84.6763134 C31.25339873 88.23506169 32.48764784 91.79231955 33.72789001 95.3475647 C34.37510765 97.21425308 34.37510765 97.21425308 35.03540039 99.11865234 C35.41628311 100.21092133 35.79716583 101.30319031 36.18959045 102.42855835 C37 105 37 105 37 107 C13.24 107 -10.52 107 -35 107 C-32.74997185 96.87487331 -32.74997185 96.87487331 -31.55137634 93.28663635 C-31.28081924 92.4693959 -31.01026215 91.65215546 -30.73150635 90.81015015 C-30.29581329 89.51689316 -30.29581329 89.51689316 -29.85131836 88.19750977 C-29.54051834 87.26306534 -29.22971832 86.32862091 -28.90950012 85.36585999 C-27.89062242 82.30624119 -26.86535062 79.24880883 -25.83984375 76.19140625 C-25.1272995 74.05683387 -24.4151111 71.92214267 -23.70326233 69.78733826 C-22.21564177 65.32906506 -20.72509043 60.871787 -19.23217773 56.4152832 C-17.3157518 50.69439994 -15.40459949 44.97177304 -13.49535275 39.24849033 C-12.02718598 34.84813802 -10.55732134 30.44835456 -9.08682442 26.04878044 C-8.38122091 23.937676 -7.67590187 21.82647646 -6.97086906 19.71518135 C-5.98858213 16.77516747 -5.00426603 13.83584143 -4.01928711 10.89672852 C-3.72680084 10.02038757 -3.43431458 9.14404663 -3.13296509 8.2411499 C-2.86522781 7.44364822 -2.59749054 6.64614655 -2.32164001 5.82447815 C-2.08918044 5.13007409 -1.85672087 4.43567003 -1.61721706 3.72022343 C-1 2 -1 2 0 0 Z " fill="#FCF9FB" transform="translate(1717,162)"/>
<path d="M0 0 C1.63957416 2.45936123 2.4937677 4.09766181 3.41015625 6.81396484 C3.6728833 7.58555939 3.93561035 8.35715393 4.20629883 9.15213013 C4.63011841 10.41873978 4.63011841 10.41873978 5.0625 11.7109375 C5.51822388 13.05501175 5.51822388 13.05501175 5.9831543 14.42623901 C6.99299354 17.40774935 7.99658306 20.39132271 9 23.375 C9.70273394 25.45553577 10.40586572 27.53593721 11.109375 29.61621094 C12.22350359 32.91105158 13.33720612 36.20603145 14.44921875 39.50158691 C17.29882348 47.94336104 20.17610148 56.37543171 23.0625 64.8046875 C24.30359244 68.43519684 25.54422797 72.06586193 26.78466797 75.69659424 C27.59477664 78.06520196 28.40629998 80.43332631 29.21923828 82.80096436 C30.35870968 86.12109388 31.49248995 89.44311565 32.625 92.765625 C33.13945679 94.25774002 33.13945679 94.25774002 33.66430664 95.77999878 C33.97360107 96.69081207 34.28289551 97.60162537 34.6015625 98.54003906 C34.87307129 99.33315491 35.14458008 100.12627075 35.42431641 100.94342041 C36 103 36 103 36 106 C12.57 106 -10.86 106 -35 106 C-32.74994315 95.87474416 -32.74994315 95.87474416 -31.55137634 92.27990723 C-31.28081924 91.46122162 -31.01026215 90.64253601 -30.73150635 89.79904175 C-30.44104431 88.93529938 -30.15058228 88.07155701 -29.85131836 87.18164062 C-29.54051834 86.2455899 -29.22971832 85.30953918 -28.90950012 84.34512329 C-27.89069874 81.28067407 -26.86545222 78.21842708 -25.83984375 75.15625 C-25.12734318 73.01926729 -24.41515407 70.88218072 -23.70326233 68.74499512 C-22.2157328 64.28249595 -20.72512257 59.82104186 -19.23217773 55.36035156 C-17.3147119 49.63074331 -15.40396466 43.89892181 -13.49535275 38.16635895 C-12.02815505 33.76143405 -10.55797803 29.35750831 -9.08682442 24.9539032 C-8.38069002 22.8393582 -7.67537104 20.72454073 -6.97086906 18.60945129 C-5.98996484 15.66636988 -5.00519178 12.72461257 -4.01928711 9.78320312 C-3.72680084 8.90326691 -3.43431458 8.02333069 -3.13296509 7.11672974 C-1.11437501 1.11437501 -1.11437501 1.11437501 0 0 Z " fill="#FDFBFC" transform="translate(415,162)"/>
<path d="M0 0 C5.82070484 4.79814858 10.17229561 10.47104416 13.5625 17.21875 C13.5625 18.20875 13.5625 19.19875 13.5625 20.21875 C-0.75895464 21.44338745 -0.75895464 21.44338745 -4.58984375 18.6484375 C-6.01859071 16.56666215 -7.21738629 14.42771403 -8.4375 12.21875 C-14.22223225 5.59478199 -21.84052472 2.51954193 -30.50390625 1.80078125 C-41.58805707 1.25951168 -50.71367729 3.36176307 -59.75 10.15625 C-66.96261286 16.99163415 -71.31459164 27.54536175 -71.60546875 37.36328125 C-71.61734629 38.91923912 -71.62371511 40.47524733 -71.625 42.03125 C-71.63724609 42.80017578 -71.64949219 43.56910156 -71.66210938 44.36132812 C-71.6804274 51.59694719 -70.3960583 57.89837982 -67.0625 64.40625 C-66.66289062 65.20417969 -66.26328125 66.00210938 -65.8515625 66.82421875 C-62.97741262 71.69121842 -59.90833525 74.89552272 -55.125 77.90625 C-54.22136719 78.48761719 -53.31773437 79.06898438 -52.38671875 79.66796875 C-43.49473534 84.34362096 -32.99382682 84.49606151 -23.26953125 82.6015625 C-13.17415822 79.38357335 -7.60086974 73.25464705 -2.4375 64.21875 C3.1725 64.21875 8.7825 64.21875 14.5625 64.21875 C8.68207471 78.91981322 -0.06011726 87.0268905 -14.4375 93.21875 C-27.72071156 98.2309485 -43.46520535 97.93055625 -56.4375 92.21875 C-60.28459425 90.11189152 -63.89716258 87.80591965 -67.4375 85.21875 C-68.27152344 84.61289062 -69.10554688 84.00703125 -69.96484375 83.3828125 C-79.20473197 75.29608569 -85.09055545 63.29182179 -86.4375 51.21875 C-87.57070952 33.22071647 -84.76077572 19.37841304 -73.25 5.03125 C-69.01355331 0.38057297 -63.85438301 -2.67171105 -58.4375 -5.78125 C-57.4475 -6.379375 -56.4575 -6.9775 -55.4375 -7.59375 C-37.10257338 -14.85132512 -15.67649901 -11.45590312 0 0 Z " fill="#050505" transform="translate(257.4375,494.78125)"/>
<path d="M0 0 C6.75877536 5.34414796 10.30482381 11.97662965 12.6875 20.125 C12.92800903 23.0484314 12.92800903 23.0484314 12.91455078 26.13037109 C12.91439972 27.29112152 12.91424866 28.45187195 12.91409302 29.64779663 C12.90377045 30.88550812 12.89344788 32.1232196 12.8828125 33.3984375 C12.8799826 34.67731842 12.87715271 35.95619934 12.87423706 37.27383423 C12.8649602 40.65720099 12.84702183 44.04029326 12.8248291 47.42358398 C12.80429041 50.88262574 12.79521826 54.34169596 12.78515625 57.80078125 C12.76313197 64.57560591 12.72862034 71.35026541 12.6875 78.125 C8.0675 78.125 3.4475 78.125 -1.3125 78.125 C-1.3218457 76.47048828 -1.33119141 74.81597656 -1.34082031 73.11132812 C-1.38079147 66.9535055 -1.44657165 60.7961787 -1.52001953 54.63867188 C-1.55037523 51.97708389 -1.56942114 49.3160998 -1.58349609 46.65429688 C-1.60498215 42.82118357 -1.65166563 38.98906398 -1.703125 35.15625 C-1.70435364 33.97260864 -1.70558228 32.78896729 -1.70684814 31.56945801 C-1.83724907 24.15911553 -2.50033275 18.32218854 -7.6885376 12.60998535 C-13.61311386 7.23470915 -20.29222289 6.53725458 -27.984375 6.6953125 C-33.3364677 7.38631038 -37.54528947 9.23840604 -41.3125 13.125 C-46.25518498 20.63661867 -47.04971418 27.29551296 -47.01953125 36.1328125 C-47.03465256 37.3394455 -47.04977386 38.54607849 -47.06535339 39.78927612 C-47.10803661 43.60971041 -47.11705035 47.42935159 -47.125 51.25 C-47.14815913 53.85418747 -47.17352738 56.45835628 -47.20117188 59.0625 C-47.26383382 65.4167362 -47.29632025 71.77048233 -47.3125 78.125 C-51.9325 78.125 -56.5525 78.125 -61.3125 78.125 C-61.3125 50.735 -61.3125 23.345 -61.3125 -4.875 C-56.6925 -4.875 -52.0725 -4.875 -47.3125 -4.875 C-46.9825 -1.575 -46.6525 1.725 -46.3125 5.125 C-45.19875 4.0525 -44.085 2.98 -42.9375 1.875 C-29.99522101 -9.26032904 -14.2264323 -8.05269753 0 0 Z " fill="#060606" transform="translate(1116.3125,511.875)"/>
<path d="M0 0 C6.75877536 5.34414796 10.30482381 11.97662965 12.6875 20.125 C12.92800903 23.0484314 12.92800903 23.0484314 12.91455078 26.13037109 C12.91439972 27.29112152 12.91424866 28.45187195 12.91409302 29.64779663 C12.90377045 30.88550812 12.89344788 32.1232196 12.8828125 33.3984375 C12.8799826 34.67731842 12.87715271 35.95619934 12.87423706 37.27383423 C12.8649602 40.65720099 12.84702183 44.04029326 12.8248291 47.42358398 C12.80429041 50.88262574 12.79521826 54.34169596 12.78515625 57.80078125 C12.76313197 64.57560591 12.72862034 71.35026541 12.6875 78.125 C8.0675 78.125 3.4475 78.125 -1.3125 78.125 C-1.3218457 76.47048828 -1.33119141 74.81597656 -1.34082031 73.11132812 C-1.38079147 66.9535055 -1.44657165 60.7961787 -1.52001953 54.63867188 C-1.55037523 51.97708389 -1.56942114 49.3160998 -1.58349609 46.65429688 C-1.60498215 42.82118357 -1.65166563 38.98906398 -1.703125 35.15625 C-1.70435364 33.97260864 -1.70558228 32.78896729 -1.70684814 31.56945801 C-1.83724907 24.15911553 -2.50033275 18.32218854 -7.6885376 12.60998535 C-13.61311386 7.23470915 -20.29222289 6.53725458 -27.984375 6.6953125 C-33.3364677 7.38631038 -37.54528947 9.23840604 -41.3125 13.125 C-46.25518498 20.63661867 -47.04971418 27.29551296 -47.01953125 36.1328125 C-47.03465256 37.3394455 -47.04977386 38.54607849 -47.06535339 39.78927612 C-47.10803661 43.60971041 -47.11705035 47.42935159 -47.125 51.25 C-47.14815913 53.85418747 -47.17352738 56.45835628 -47.20117188 59.0625 C-47.26383382 65.4167362 -47.29632025 71.77048233 -47.3125 78.125 C-51.9325 78.125 -56.5525 78.125 -61.3125 78.125 C-61.3125 50.735 -61.3125 23.345 -61.3125 -4.875 C-56.6925 -4.875 -52.0725 -4.875 -47.3125 -4.875 C-46.9825 -1.575 -46.6525 1.725 -46.3125 5.125 C-45.19875 4.0525 -44.085 2.98 -42.9375 1.875 C-29.99522101 -9.26032904 -14.2264323 -8.05269753 0 0 Z " fill="#060606" transform="translate(449.3125,511.875)"/>
<path d="M0 0 C6.18852371 4.29047435 10.27211676 10.20656844 12.3046875 17.453125 C13.93130151 26.62664185 13.25050877 36.06491018 8.37890625 44.15625 C4.14676359 50.06816062 -0.97027363 55.21206334 -8.26171875 56.8984375 C-18.06505797 57.80554693 -25.40616083 57.56836592 -33.15234375 51.390625 C-39.74599071 45.43417922 -42.82661013 37.88954847 -43.46484375 29.1015625 C-43.62506393 19.00769143 -41.87227957 10.87522292 -34.765625 3.3046875 C-24.75353486 -6.12933739 -11.73464294 -6.48373268 0 0 Z " fill="#FCFCFC" transform="translate(1305.26171875,522.1015625)"/>
<path d="M0 0 C6.50472013 4.42993871 10.68079653 9.64241856 12.57421875 17.33203125 C14.23133073 27.71558616 13.36616036 36.85714956 8 46 C3.94316258 51.56682653 -1.28306332 55.35936891 -8 57 C-15.88185941 57.90812728 -23.31080625 58.17028353 -30.07421875 53.59765625 C-38.17667825 46.87573751 -42.07160429 39.47502111 -43.37890625 28.94921875 C-43.75056753 19.70564316 -41.53926028 11.65123282 -35.5625 4.5 C-25.80733603 -5.64868438 -12.05471293 -6.67736549 0 0 Z " fill="#FCFCFC" transform="translate(1203,522)"/>
<path d="M0 0 C6.50472013 4.42993871 10.68079653 9.64241856 12.57421875 17.33203125 C14.23133073 27.71558616 13.36616036 36.85714956 8 46 C3.94316258 51.56682653 -1.28306332 55.35936891 -8 57 C-15.88185941 57.90812728 -23.31080625 58.17028353 -30.07421875 53.59765625 C-38.17667825 46.87573751 -42.07160429 39.47502111 -43.37890625 28.94921875 C-43.75056753 19.70564316 -41.53926028 11.65123282 -35.5625 4.5 C-25.80733603 -5.64868438 -12.05471293 -6.67736549 0 0 Z " fill="#FCFCFC" transform="translate(1005,522)"/>
<path d="M0 0 C6.28676995 4.5986558 9.57951784 10.73855353 12 18 C12.72623156 28.61415355 12.40886575 39.8245936 5.51953125 48.50390625 C-0.5914943 54.52067434 -7.83733804 57.28843042 -16.3125 57.375 C-23.92575548 57.31524132 -28.5479012 56.19476053 -34.1484375 51.01171875 C-41.98279923 42.82382084 -43.59482245 35.28561424 -43.55297852 24.2355957 C-43.27733732 15.17113929 -40.29263638 7.7957154 -33.6875 1.4375 C-23.49861728 -6.13712992 -10.95761771 -5.69728896 0 0 Z " fill="#FCFCFC" transform="translate(344,522)"/>
<path d="M0 0 C7.92479264 5.37400001 12.01088063 12.03264189 15 21 C15.08865176 22.91718848 15.11761757 24.83735913 15.11352539 26.7565918 C15.11341209 28.52808846 15.11341209 28.52808846 15.11329651 30.33537292 C15.10813522 31.61044205 15.10297394 32.88551117 15.09765625 34.19921875 C15.0962413 35.50454056 15.09482635 36.80986237 15.09336853 38.15473938 C15.0895538 41.62189656 15.07973244 45.08901174 15.06866455 48.55615234 C15.05842798 52.09537182 15.0538661 55.6345981 15.04882812 59.17382812 C15.03810923 66.1159044 15.02052087 73.05794585 15 80 C10.71 80 6.42 80 2 80 C1.98541748 78.43636719 1.97083496 76.87273437 1.95581055 75.26171875 C1.89767219 69.4393877 1.82043947 63.61743709 1.73754883 57.79541016 C1.70437264 55.27952262 1.67631816 52.76356197 1.65356445 50.24755859 C1.61988482 46.62305656 1.56756009 42.99922021 1.51171875 39.375 C1.50532883 38.25697998 1.4989389 37.13895996 1.49235535 35.98706055 C1.3734022 29.61400438 0.6447351 24.81315532 -2 19 C-2.4125 18.0925 -2.825 17.185 -3.25 16.25 C-6.42600187 12.16656902 -10.93625744 9.97704866 -16 9 C-22.6251024 8.46505384 -29.23282426 8.33772173 -35 12 C-40.28204873 16.72879066 -43.6260222 21.3702949 -44.21194458 28.62379456 C-44.32752226 31.88278497 -44.38131467 35.13755863 -44.4140625 38.3984375 C-44.43342865 39.58853424 -44.4527948 40.77863098 -44.4727478 42.00479126 C-44.53238503 45.79478861 -44.57886616 49.58481659 -44.625 53.375 C-44.66319431 55.94923178 -44.70224689 58.52345097 -44.7421875 61.09765625 C-44.83807381 67.39833496 -44.92216391 73.69907349 -45 80 C-49.62 80 -54.24 80 -59 80 C-59 52.61 -59 25.22 -59 -3 C-54.38 -3 -49.76 -3 -45 -3 C-44.67 0.3 -44.34 3.6 -44 7 C-42.88625 5.9275 -41.7725 4.855 -40.625 3.75 C-29.27029248 -6.01940804 -13.18326115 -7.29199133 0 0 Z " fill="#050505" transform="translate(1755,510)"/>
<path d="M0 0 C7.37860808 5.11313493 12.49086629 11.37456607 15 20 C15.24050903 22.99935913 15.24050903 22.99935913 15.22705078 26.18896484 C15.22689972 27.38975677 15.22674866 28.59054871 15.22659302 29.82772827 C15.21627045 31.10918732 15.20594788 32.39064636 15.1953125 33.7109375 C15.1915779 35.04757474 15.18873304 36.38421474 15.18673706 37.72085571 C15.17913577 41.22255132 15.15951788 44.7240785 15.1373291 48.22570801 C15.11679474 51.80539675 15.10771918 55.38511296 15.09765625 58.96484375 C15.07626827 65.97663826 15.0411151 72.98829368 15 80 C10.71 80 6.42 80 2 80 C1.98541748 78.441604 1.97083496 76.88320801 1.95581055 75.27758789 C1.8976208 69.46827827 1.82038873 63.65934788 1.73754883 57.8503418 C1.70439668 55.34129006 1.67633486 52.83216548 1.65356445 50.32299805 C1.6198403 46.70590319 1.56751373 43.08946998 1.51171875 39.47265625 C1.50532883 38.35979752 1.4989389 37.24693878 1.49235535 36.10035706 C1.34808228 28.37130647 0.21110757 21.97999362 -3.5625 15.1875 C-9.71268641 9.66810194 -17.08500368 8.30590515 -25.16796875 8.6171875 C-31.03146326 9.40977021 -34.62807245 11.65855973 -38.8125 15.75 C-44.01090344 23.47334225 -44.45981041 30.29279994 -44.51171875 39.375 C-44.52966995 40.5400708 -44.54762115 41.7051416 -44.56611633 42.90551758 C-44.62002508 46.60364227 -44.65405354 50.30163931 -44.6875 54 C-44.72069012 56.51694477 -44.75518134 59.03387274 -44.79101562 61.55078125 C-44.87574081 67.70042846 -44.94264515 73.85003908 -45 80 C-49.29 80 -53.58 80 -58 80 C-58 52.94 -58 25.88 -58 -2 C-53.71 -2 -49.42 -2 -45 -2 C-44.67 1.3 -44.34 4.6 -44 8 C-43.505 7.278125 -43.01 6.55625 -42.5 5.8125 C-31.90458377 -6.10734326 -13.66528246 -7.45777855 0 0 Z " fill="#010101" transform="translate(691,510)"/>
<path d="M0 0 C4.62 0 9.24 0 14 0 C14 6.6 14 13.2 14 20 C20.93 20 27.86 20 35 20 C35 23.96 35 27.92 35 32 C28.07 32 21.14 32 14 32 C14.06878716 39.61751308 14.1567119 47.23447256 14.26245117 54.8515625 C14.29572432 57.44329699 14.32374871 60.03510435 14.34643555 62.62695312 C14.37993675 66.35057664 14.43225223 70.07353081 14.48828125 73.796875 C14.49467117 74.95741394 14.5010611 76.11795288 14.50764465 77.31365967 C14.52743881 78.39447815 14.54723297 79.47529663 14.56762695 80.58886719 C14.57873001 81.53928894 14.58983307 82.48971069 14.60127258 83.46893311 C15.06851558 86.4349275 15.96027354 87.82684665 18 90 C19.90987039 90.63311705 19.90987039 90.63311705 22.01171875 90.609375 C23.14770508 90.65771484 23.14770508 90.65771484 24.30664062 90.70703125 C25.09232422 90.72121094 25.87800781 90.73539063 26.6875 90.75 C27.88342773 90.79447266 27.88342773 90.79447266 29.10351562 90.83984375 C31.06846749 90.91044082 33.03423977 90.95749708 35 91 C35 94.96 35 98.92 35 103 C11.86717603 104.01065736 11.86717603 104.01065736 5 98 C0.88817408 93.00786446 -0.12795987 87.79050197 -0.11352539 81.49707031 C-0.11344986 80.39623108 -0.11337433 79.29539185 -0.11329651 78.16119385 C-0.10813522 76.97878113 -0.10297394 75.79636841 -0.09765625 74.578125 C-0.0962413 73.36300232 -0.09482635 72.14787964 -0.09336853 70.89593506 C-0.08776988 67.01393169 -0.0752176 63.13198594 -0.0625 59.25 C-0.05748483 56.61849042 -0.05292195 53.98697993 -0.04882812 51.35546875 C-0.03780088 44.90362362 -0.02053714 38.45182158 0 32 C-3.63 32 -7.26 32 -11 32 C-11 28.37 -11 24.74 -11 21 C-7.37 21 -3.74 21 0 21 C0 14.07 0 7.14 0 0 Z " fill="#080808" transform="translate(732,487)"/>
<path d="M0 0 C4.29 0 8.58 0 13 0 C13 6.93 13 13.86 13 21 C20.26 21 27.52 21 35 21 C35 24.63 35 28.26 35 32 C27.74 32 20.48 32 13 32 C13.06885647 39.31438331 13.15681549 46.62819389 13.26245117 53.94213867 C13.29569657 56.43002978 13.32372966 58.91799624 13.34643555 61.40600586 C13.3799877 64.98323668 13.43230592 68.55977719 13.48828125 72.13671875 C13.49467117 73.24834885 13.5010611 74.35997894 13.50764465 75.5052948 C13.53733589 77.06634697 13.53733589 77.06634697 13.56762695 78.65893555 C13.57873001 79.5716069 13.58983307 80.48427826 13.60127258 81.42460632 C14.12857336 84.83045963 15.54721063 87.54721063 18 90 C20.85877909 90.23701239 23.69883297 90.42219182 26.5625 90.5625 C27.77196289 90.62727539 27.77196289 90.62727539 29.00585938 90.69335938 C31.00368805 90.79975262 33.0018207 90.90040888 35 91 C35 94.96 35 98.92 35 103 C31.99943916 103.08166849 29.0011461 103.14081551 26 103.1875 C25.16082031 103.21263672 24.32164063 103.23777344 23.45703125 103.26367188 C16.43138945 103.34536538 11.23527954 102.01306283 5.1875 98.25 C-1.07291371 91.81071732 -0.40118544 84.30907524 -0.29296875 75.84765625 C-0.28872391 74.59238632 -0.28447906 73.33711639 -0.28010559 72.04380798 C-0.26620628 68.72770663 -0.23931502 65.41223948 -0.20599365 62.09631348 C-0.1751492 58.7042383 -0.16156975 55.31209726 -0.14648438 51.91992188 C-0.11347627 45.27975192 -0.0617244 38.63996261 0 32 C-3.63 32 -7.26 32 -11 32 C-11 28.37 -11 24.74 -11 21 C-7.37 21 -3.74 21 0 21 C0 14.07 0 7.14 0 0 Z " fill="#030303" transform="translate(1796,487)"/>
<path d="M0 0 C4.29 0 8.58 0 13 0 C13 6.93 13 13.86 13 21 C20.26 21 27.52 21 35 21 C35 24.63 35 28.26 35 32 C27.74 32 20.48 32 13 32 C13.06885647 39.31438331 13.15681549 46.62819389 13.26245117 53.94213867 C13.29569657 56.43002978 13.32372966 58.91799624 13.34643555 61.40600586 C13.3799877 64.98323668 13.43230592 68.55977719 13.48828125 72.13671875 C13.49467117 73.24834885 13.5010611 74.35997894 13.50764465 75.5052948 C13.53733589 77.06634697 13.53733589 77.06634697 13.56762695 78.65893555 C13.57873001 79.5716069 13.58983307 80.48427826 13.60127258 81.42460632 C14.12857336 84.83045963 15.54721063 87.54721063 18 90 C20.85877909 90.23701239 23.69883297 90.42219182 26.5625 90.5625 C27.77196289 90.62727539 27.77196289 90.62727539 29.00585938 90.69335938 C31.00368805 90.79975262 33.0018207 90.90040888 35 91 C35 94.96 35 98.92 35 103 C31.99943916 103.08166849 29.0011461 103.14081551 26 103.1875 C25.16082031 103.21263672 24.32164062 103.23777344 23.45703125 103.26367188 C16.43138945 103.34536538 11.23527954 102.01306283 5.1875 98.25 C-1.07291371 91.81071732 -0.40118544 84.30907524 -0.29296875 75.84765625 C-0.28872391 74.59238632 -0.28447906 73.33711639 -0.28010559 72.04380798 C-0.26620628 68.72770663 -0.23931502 65.41223948 -0.20599365 62.09631348 C-0.1751492 58.7042383 -0.16156975 55.31209726 -0.14648438 51.91992188 C-0.11347627 45.27975192 -0.0617244 38.63996261 0 32 C-3.63 32 -7.26 32 -11 32 C-11 28.37 -11 24.74 -11 21 C-7.37 21 -3.74 21 0 21 C0 14.07 0 7.14 0 0 Z " fill="#030303" transform="translate(488,487)"/>
<path d="M0 0 C4.89940599 3.60854453 7.70513359 8.20915078 9.609375 13.921875 C9.609375 16.231875 9.609375 18.541875 9.609375 20.921875 C-7.550625 20.921875 -24.710625 20.921875 -42.390625 20.921875 C-41.36712702 11.71039317 -40.21584385 6.90393277 -33.1328125 1.05859375 C-22.71855954 -6.1420201 -11.10981105 -6.17211725 0 0 Z " fill="#F8F8F8" transform="translate(1406.390625,522.078125)"/>
<path d="M0 0 C1.33335154 0.71227097 2.64959762 1.45850539 3.9375 2.25 C5.29875 3.0853125 5.29875 3.0853125 6.6875 3.9375 C12.69706672 10.11399913 13.9375 14.49820046 13.9375 23.25 C-3.2225 23.25 -20.3825 23.25 -38.0625 23.25 C-37.00533437 14.79267495 -35.40154073 8.90898665 -28.76953125 3.31640625 C-20.21920167 -2.5000496 -9.79659305 -4.21270021 0 0 Z " fill="#F8F8F8" transform="translate(1650.0625,519.75)"/>
<path d="M0 0 C5.30377017 3.1151928 8.81280959 7.057367 11.8125 12.375 C12.4375 14.9375 12.4375 14.9375 12.4375 22.9375 C-4.3925 22.9375 -21.2225 22.9375 -38.5625 22.9375 C-38.5625 15.09956683 -37.79765113 11.35975875 -32.46875 5.72265625 C-23.37046062 -2.66293379 -11.67828794 -5.39544002 0 0 Z " fill="#F9F9F9" transform="translate(587.5625,520.0625)"/>
</svg>
