<?xml version="1.0" encoding="UTF-8"?>
<svg version="1.1" xmlns="http://www.w3.org/2000/svg" width="2000" height="647">
<path d="M0 0 C660 0 1320 0 2000 0 C2000 213.51 2000 427.02 2000 647 C1340 647 680 647 0 647 C0 433.49 0 219.98 0 0 Z " fill="#FEFEFE" transform="translate(0,0)"/>
<path d="M0 0 C1.43617676 0.0616333 1.43617676 0.0616333 2.90136719 0.12451172 C17.08725688 0.78584378 30.45296863 2.10646502 44.02490234 6.38720703 C45.83256786 6.94805257 47.65995921 7.4442668 49.48828125 7.93359375 C58.59409084 10.43518979 66.72960648 14.53018918 75 19 C75.94101563 19.50660156 76.88203125 20.01320313 77.8515625 20.53515625 C107.88734783 37.6507863 126.42473101 68.35071979 135.3671875 100.88671875 C144.18380299 134.49524574 145.85114394 172.56399576 138.49951172 206.62548828 C138.04926227 208.76582364 137.67798462 210.89708547 137.34765625 213.05859375 C131.95040557 245.83013543 113.11341252 278.53822537 86 298 C75.01586058 305.61592895 63.90484421 311.13439797 51.20483398 315.27978516 C49.69993481 315.77136445 48.19953771 316.27689001 46.70336914 316.79443359 C42.02857442 318.40519823 37.42532626 319.67232575 32.5625 320.625 C31.36753906 320.86476563 30.17257812 321.10453125 28.94140625 321.3515625 C20.83630401 322.68500846 12.79213222 323.16916235 4.5859375 323.23828125 C3.6212706 323.24812042 2.6566037 323.25795959 1.66270447 323.26809692 C-41.54355504 323.61852533 -80.97030196 317.91178087 -113.70703125 287.2578125 C-143.20145411 258.21560396 -156.69827851 215.74689457 -157.18981934 174.89854431 C-157.19421021 174.0825325 -157.19860107 173.26652069 -157.203125 172.42578125 C-157.21357849 171.10792381 -157.21357849 171.10792381 -157.22424316 169.76344299 C-157.2415247 166.94641261 -157.24796189 164.12958117 -157.25 161.3125 C-157.25100708 160.35079895 -157.25201416 159.3890979 -157.25305176 158.39825439 C-157.24289678 144.07466455 -156.81427852 130.08941359 -154 116 C-153.85546387 115.24799316 -153.71092773 114.49598633 -153.56201172 113.72119141 C-152.58071456 108.75167656 -151.37391485 103.87462213 -150 99 C-149.80599609 98.29633301 -149.61199219 97.59266602 -149.41210938 96.86767578 C-139.9325976 63.33578373 -118.35783442 35.18977221 -88.11669922 17.92480469 C-61.69945995 3.23424236 -29.93512692 -1.37666435 0 0 Z " fill="#010101" transform="translate(1256,59)"/>
<path d="M0 0 C126.000387 0 126.000387 0 145.6875 4.4375 C146.65365234 4.64181641 147.61980469 4.84613281 148.61523438 5.05664062 C158.1941463 7.13002615 167.29854093 9.9013962 176.3125 13.75 C177.54625366 14.27605835 177.54625366 14.27605835 178.80493164 14.81274414 C210.88080013 28.69380413 236.8210841 53.88663193 249.8125 86.625 C252.22049526 93.31939233 254.16570196 100.1292888 256 107 C256.41765625 108.47919922 256.41765625 108.47919922 256.84375 109.98828125 C268.0315365 151.32715237 262.58435853 205.37216535 241.48046875 242.5703125 C236.94661596 250.19032099 231.79485089 257.28715293 226 264 C225.00806641 265.20849609 225.00806641 265.20849609 223.99609375 266.44140625 C206.42748942 287.11606218 181.69227182 298.22910136 156.37084961 306.24145508 C154.61985158 306.80168069 152.88035938 307.39816687 151.14819336 308.01416016 C145.80539419 309.68722902 140.27543549 310.38010258 134.75439453 311.23217773 C132.66411954 311.55643158 130.57627363 311.89382183 128.48828125 312.23242188 C127.10950215 312.4487287 125.73059888 312.6642458 124.3515625 312.87890625 C123.13291504 313.0704126 121.91426758 313.26191895 120.65869141 313.45922852 C80.70412375 318.09707399 40.22284286 315 0 315 C0 211.05 0 107.1 0 0 Z " fill="#010101" transform="translate(1463,64)"/>
<path d="M0 0 C27.06 0 54.12 0 82 0 C90.03070255 21.7976212 90.03070255 21.7976212 93.2421875 30.98046875 C93.60752594 32.0209285 93.97286438 33.06138824 94.34927368 34.13337708 C95.12497886 36.34285453 95.90006728 38.55254861 96.67456055 40.76245117 C98.76684283 46.73207251 100.8640985 52.69994676 102.9609375 58.66796875 C103.38618713 59.87863007 103.81143677 61.08929138 104.24957275 62.3366394 C108.31226255 73.89847698 112.40327066 85.45018914 116.5 97 C122.93136745 115.13545903 129.32680153 133.2833586 135.70800781 151.43652344 C141.62757752 168.27494319 147.57141784 185.10456309 153.53796387 201.9263916 C157.65098906 213.52335434 161.75115264 225.12468294 165.828125 236.734375 C166.43819649 238.47136909 166.43819649 238.47136909 167.06059265 240.24345398 C168.69362889 244.89340308 170.32659864 249.54337508 171.95840454 254.1937561 C175.95569102 265.58239407 179.9660303 276.96505443 184.08984375 288.30859375 C184.40162567 289.16677704 184.71340759 290.02496033 185.03463745 290.90914917 C186.46341432 294.83724751 187.89883536 298.7627398 189.34472656 302.68457031 C189.83795516 304.03317953 190.3311234 305.38181081 190.82421875 306.73046875 C191.45976685 308.45366333 191.45976685 308.45366333 192.1081543 310.21166992 C193 313 193 313 193 316 C169.24 316 145.48 316 121 316 C110.5 281.5 110.5 281.5 108.7734375 275.81640625 C107.53898638 271.75847652 106.29226224 267.70452119 105.0390625 263.65234375 C104.71873047 262.61207031 104.39839844 261.57179688 104.06835938 260.5 C103.45560027 258.51075304 102.83988242 256.5224142 102.22070312 254.53515625 C101.94419922 253.63539063 101.66769531 252.735625 101.3828125 251.80859375 C101.13934082 251.02282959 100.89586914 250.23706543 100.64501953 249.42749023 C99.9100017 246.6612971 99.47053953 243.82323719 99 241 C61.05 241 23.1 241 -16 241 C-16.99 244.3 -17.98 247.6 -19 251 C-19.54770225 252.80392587 -20.09678675 254.60743393 -20.6484375 256.41015625 C-23.34610161 265.24148112 -26.03908804 274.07270974 -28.625 282.9375 C-30.24900915 288.49262132 -31.91028683 294.03465299 -33.625 299.5625 C-34.00914062 300.80128906 -34.39328125 302.04007812 -34.7890625 303.31640625 C-36.08189302 307.24911327 -37.54643397 311.12382391 -39 315 C-62.43 315 -85.86 315 -110 315 C-107.74992837 304.87467765 -107.74992837 304.87467765 -106.02319336 299.95678711 C-105.63707886 298.84917023 -105.25096436 297.74155334 -104.85314941 296.60037231 C-104.43625854 295.42127289 -104.01936768 294.24217346 -103.58984375 293.02734375 C-103.14593422 291.76031225 -102.70246379 290.49312684 -102.25939941 289.22579956 C-101.07179512 285.83303615 -99.87780953 282.44255151 -98.68250656 279.05249405 C-97.42474169 275.48183394 -96.17290639 271.90909518 -94.92016602 268.33666992 C-88.45415391 249.90797939 -81.94175625 231.495617 -75.40600586 213.09155273 C-69.72157347 197.07816791 -64.10561251 181.04109392 -58.5 165 C-51.87192812 146.03335367 -45.21002237 127.07929781 -38.48657227 108.14620972 C-34.16096319 95.96269669 -29.86169008 83.7702315 -25.59375 71.56640625 C-25.36172379 70.9030061 -25.12969757 70.23960594 -24.89064026 69.55610275 C-22.81850434 63.63091999 -20.74723209 57.70543627 -18.67993164 51.77856445 C-14.14651901 38.78186451 -9.59201425 25.79375728 -4.9375 12.83984375 C-4.55513184 11.77415665 -4.17276367 10.70846954 -3.77880859 9.61048889 C-3.252146 8.14995338 -3.252146 8.14995338 -2.71484375 6.65991211 C-2.40667725 5.80481552 -2.09851074 4.94971893 -1.78100586 4.06871033 C-1 2 -1 2 0 0 Z " fill="#010101" transform="translate(357,63)"/>
<path d="M0 0 C59.73 0 119.46 0 181 0 C181 18.15 181 36.3 181 55 C143.38 55 105.76 55 67 55 C67 77.77 67 100.54 67 124 C101.98 124 136.96 124 173 124 C173 141.82 173 159.64 173 178 C138.02 178 103.04 178 67 178 C67 205.06 67 232.12 67 260 C104.62 260 142.24 260 181 260 C181 278.15 181 296.3 181 315 C121.27 315 61.54 315 0 315 C0 211.05 0 107.1 0 0 Z " fill="#010101" transform="translate(1789,64)"/>
<path d="M0 0 C-0.61438028 5.57794109 -2.57755844 10.26366905 -4.74609375 15.37890625 C-5.11726822 16.26859604 -5.48844269 17.15828583 -5.87086487 18.07493591 C-7.05377411 20.90666612 -8.2454305 23.73461547 -9.4375 26.5625 C-10.23561952 28.46785047 -11.03315181 30.37344703 -11.83007812 32.27929688 C-13.29245271 35.77573418 -14.75879868 39.27045691 -16.22827148 42.76391602 C-17.51590798 45.83097342 -18.78022195 48.90515224 -20 52 C-25.55055649 51.44131654 -30.06053231 49.95449921 -35.1875 47.8125 C-58.79921606 38.3687922 -89.0987225 28.7644243 -114.22265625 37.73046875 C-122.78187737 41.64291159 -128.60777447 47.74003176 -132.234375 56.41796875 C-134.83488423 65.18805344 -133.1427479 74.01041476 -129 82 C-118.87002917 97.63538975 -95.65556884 105.25409472 -79.54296875 113.16796875 C-49.49600252 127.94582448 -49.49600252 127.94582448 -37 137 C-36.12601563 137.6290625 -35.25203125 138.258125 -34.3515625 138.90625 C-32.17210083 140.54270586 -30.0799679 142.23941297 -28 144 C-26.79150391 144.99193359 -26.79150391 144.99193359 -25.55859375 146.00390625 C-9.99584856 159.28569947 -0.76942832 176.85999643 2 197 C4.02192114 225.33546664 -1.14829131 248.29757399 -19.82421875 270.1328125 C-41.95588655 293.79560198 -76.25861435 301.1906363 -107.328125 302.34765625 C-140.56155 303.02067642 -173.1211869 297.93940655 -203 283 C-203 262.54 -203 242.08 -203 221 C-198.93580518 222.35473161 -195.10383718 223.73650251 -191.17578125 225.390625 C-172.07302166 233.35837443 -153.3454848 240.08740677 -133 244 C-131.2675 244.3403125 -131.2675 244.3403125 -129.5 244.6875 C-111.27630309 247.78209004 -91.23829406 247.92340193 -75 238 C-67.99972941 231.77753726 -64.78211897 225.54559092 -63.671875 216.25390625 C-63.31841737 207.35434802 -65.7855733 200.35831375 -71.375 193.4375 C-84.38190002 179.88568432 -104.35622479 172.20937423 -120.96484375 164.09765625 C-150.54906016 149.62226663 -181.45607658 132.93731713 -193.6875 100.1875 C-194.47878095 97.79834202 -195.25051703 95.4025979 -196 93 C-196.32226562 92.0409375 -196.64453125 91.081875 -196.9765625 90.09375 C-203.12146156 68.73017569 -199.77229633 43.93904508 -189.140625 24.62890625 C-177.43501197 4.36714866 -158.83219342 -9.46961362 -136.4296875 -16.125 C-135.29789063 -16.41375 -134.16609375 -16.7025 -133 -17 C-131.97181152 -17.27070312 -131.97181152 -17.27070312 -130.92285156 -17.546875 C-86.20410347 -28.83621354 -41.53495419 -16.66960884 0 0 Z " fill="#010101" transform="translate(773,81)"/>
<path d="M0 0 C1.26972656 0.24363281 2.53945312 0.48726562 3.84765625 0.73828125 C21.4739536 4.71598044 39.35837202 11.04615954 56 18 C55.39270701 21.44713252 54.51193446 24.52952168 53.20581055 27.77441406 C52.83840256 28.69176331 52.47099457 29.60911255 52.092453 30.55426025 C51.6945607 31.53151062 51.2966684 32.50876099 50.88671875 33.515625 C50.47589554 34.52719666 50.06507233 35.53876831 49.64179993 36.58099365 C48.77269802 38.71359714 47.90090597 40.84510603 47.02661133 42.97558594 C45.68899318 46.24634885 44.37279332 49.52523889 43.05664062 52.8046875 C42.20964663 54.87553763 41.36138272 56.94586892 40.51171875 59.015625 C40.11989914 60.00097229 39.72807953 60.98631958 39.3243866 62.00152588 C38.94752213 62.90626648 38.57065765 63.81100708 38.18237305 64.74316406 C37.85673874 65.54304749 37.53110443 66.34293091 37.19560242 67.16705322 C36 69 36 69 34.03874207 69.81236267 C31.00665343 70.09142348 28.81484402 69.11540572 25.9765625 68.05078125 C24.78933594 67.61443359 23.60210937 67.17808594 22.37890625 66.72851562 C21.12732297 66.25725654 19.8760213 65.78524889 18.625 65.3125 C-5.41413303 56.33978386 -34.80900529 46.56652584 -60.01953125 56.515625 C-65.15980414 59.07565606 -69.15295482 61.52817289 -72.25 66.4375 C-72.72953125 67.17871094 -73.2090625 67.91992188 -73.703125 68.68359375 C-77.98996342 76.34050695 -78.40226296 85.19782212 -76.34765625 93.69921875 C-68.16261618 113.82809411 -41.92955555 122.2177389 -23.95117188 130.98339844 C-5.15548144 140.16854674 12.76703699 149.71012377 29 163 C29.74507812 163.58007812 30.49015625 164.16015625 31.2578125 164.7578125 C46.33884773 177.00006463 55.65514383 196.69142999 57.81689453 215.78613281 C58.85419553 228.32779345 58.80046548 240.93698406 55 253 C54.67128906 254.19625 54.34257812 255.3925 54.00390625 256.625 C47.89713907 277.24854591 33.68888473 293.38685059 15.14697266 304.06738281 C-16.64306342 321.08706853 -54.91298916 323.51813524 -90 318 C-91.51395327 317.80055905 -93.02829727 317.60406731 -94.54296875 317.41015625 C-136.18073509 311.81926491 -136.18073509 311.81926491 -147 301 C-147.09396057 299.06693502 -147.11743517 297.13041162 -147.11352539 295.19506836 C-147.11344986 293.95385727 -147.11337433 292.71264618 -147.11329651 291.43382263 C-147.10818911 290.0691626 -147.1029731 288.70450298 -147.09765625 287.33984375 C-147.095792 285.95121817 -147.09436813 284.56259193 -147.09336853 283.17396545 C-147.08954387 279.51278885 -147.07971403 275.8516517 -147.06866455 272.19049072 C-147.05844932 268.45707737 -147.05387067 264.72365766 -147.04882812 260.99023438 C-147.03809171 253.66013823 -147.02101591 246.33007464 -147 239 C-146.45403671 239.22008728 -145.90807343 239.44017456 -145.3455658 239.66693115 C-130.52629213 245.6458988 -130.52629213 245.6458988 -115.5625 251.25 C-114.643479 251.58153076 -113.72445801 251.91306152 -112.77758789 252.25463867 C-101.68129892 256.2266113 -90.5705408 259.66934279 -79 262 C-77.97003906 262.20753906 -76.94007812 262.41507812 -75.87890625 262.62890625 C-57.55261321 265.77495656 -36.22857587 266.48821904 -19.86328125 256.41015625 C-14.10156565 252.04961258 -9.73492399 246.16825187 -8.69824219 238.87792969 C-8.56273115 236.59833293 -8.54130463 234.3458199 -8.5625 232.0625 C-8.54251953 231.30259766 -8.52253906 230.54269531 -8.50195312 229.75976562 C-8.50893538 221.58354907 -11.68537619 215.74242377 -17.4375 210 C-31.45430407 196.67188283 -51.30006319 188.58623218 -68.61987305 180.43945312 C-99.38839129 165.96457936 -125.29074339 148.14527319 -139 116 C-146.91590202 93.53080732 -145.16458718 66.08597779 -134.94140625 44.72265625 C-124.34535948 23.78069541 -104.76374175 10.06671998 -83.00390625 2.59375 C-56.92650839 -5.89466271 -26.71721213 -5.14253538 0 0 Z " fill="#010101" transform="translate(171,63)"/>
<path d="M0 0 C-0.63128749 5.91153882 -2.81556167 11.06917336 -5 16.54296875 C-5.39574219 17.54838211 -5.79148437 18.55379547 -6.19921875 19.5896759 C-7.46064173 22.79115536 -8.73008436 25.989381 -10 29.1875 C-11.26814345 32.39700775 -12.5346629 35.60715201 -13.80078125 38.81745911 C-14.58828105 40.81245126 -15.37729578 42.80684622 -16.16796875 44.80058289 C-16.52503906 45.70194473 -16.88210938 46.60330658 -17.25 47.53198242 C-17.56453125 48.32440842 -17.8790625 49.11683441 -18.203125 49.93327332 C-18.8478008 51.60526538 -19.43332864 53.29998591 -20 55 C-25.99958973 53.08934227 -31.79661489 50.89886715 -37.61035156 48.48388672 C-64.38413518 37.42877078 -91.54941778 29.92311691 -120.25170898 39.77270508 C-140.20028372 48.18571849 -152.46945502 64.15706751 -160.50390625 83.6484375 C-161.77100337 87.07527329 -162.92272625 90.50913966 -164 94 C-164.29648437 94.96035156 -164.59296875 95.92070312 -164.8984375 96.91015625 C-169.05715637 111.87742665 -169.41277377 127.6869732 -169.375 143.125 C-169.37445618 143.97040344 -169.37391235 144.81580688 -169.37335205 145.68682861 C-169.28849163 174.5278318 -164.59942945 206.02501461 -143.6328125 227.6328125 C-129.14514297 240.65881804 -111.12608205 245.59940924 -92 245.5 C-90.06362671 245.49250732 -90.06362671 245.49250732 -88.08813477 245.48486328 C-63.42017719 245.15662644 -39.30642931 238.90924871 -16.1796875 230.6640625 C-14 230 -14 230 -11 230 C-11 248.48 -11 266.96 -11 286 C-29.84253385 293.06595019 -29.84253385 293.06595019 -38.1875 295.1875 C-39.14873779 295.4352417 -40.10997559 295.6829834 -41.1003418 295.93823242 C-50.96282472 298.38752187 -60.91125578 299.86197545 -71 301 C-71.7417749 301.0942627 -72.4835498 301.18852539 -73.24780273 301.28564453 C-81.28903583 302.22750924 -89.35243683 302.24249963 -97.4375 302.25 C-98.19189362 302.25100708 -98.94628723 302.25201416 -99.72354126 302.25305176 C-111.39083435 302.24252995 -122.59790092 301.66561049 -134 299 C-134.97259766 298.7831958 -134.97259766 298.7831958 -135.96484375 298.56201172 C-166.81325942 291.55594548 -194.4617863 274.96589751 -212.01171875 248.17578125 C-212.66785156 247.12777344 -213.32398438 246.07976562 -214 245 C-214.62519531 244.02417969 -215.25039063 243.04835938 -215.89453125 242.04296875 C-227.80380683 222.66120654 -232.94291155 200.1256497 -237 178 C-237.13567383 177.27828613 -237.27134766 176.55657227 -237.41113281 175.81298828 C-239.30821188 165.22942464 -239.17413044 154.52740997 -239.1875 143.8125 C-239.18867828 143.08701965 -239.18985657 142.36153931 -239.19107056 141.61407471 C-239.18256706 95.34853417 -227.1230313 50.26017365 -194 16.625 C-188.40938365 11.10527505 -182.62035639 6.26168691 -176 2 C-175.44231934 1.63567871 -174.88463867 1.27135742 -174.31005859 0.89599609 C-121.91078219 -33.06465359 -54.30216148 -24.81804889 0 0 Z " fill="#010101" transform="translate(1057,81)"/>
<path d="M0 0 C19.69528076 16.76723061 28.50601739 42.22448838 30.6875 67.453125 C32.74705889 98.3231042 32.47269614 130.58485904 19 159 C18.59523438 159.8971875 18.19046875 160.794375 17.7734375 161.71875 C9.91300926 177.71541098 -3.51280782 188.11056397 -20.03955078 194.07055664 C-40.06372933 200.89537379 -64.38352188 200.44273329 -83.76879883 191.57128906 C-103.3943243 181.90143712 -114.78985407 165.5910002 -121.875 145.375 C-127.36420486 127.46883518 -128.19683186 109.72315809 -128.24023438 91.13964844 C-128.24996338 88.63443055 -128.28113815 86.13002802 -128.3125 83.625 C-128.38335313 72.75694341 -127.28120002 62.62036454 -125 52 C-124.81614746 51.11521973 -124.63229492 50.23043945 -124.44287109 49.31884766 C-122.75162271 41.54051005 -120.70526601 34.07368966 -117 27 C-116.56945313 26.13117188 -116.13890625 25.26234375 -115.6953125 24.3671875 C-106.53192323 6.58525914 -92.2344148 -5.64976146 -73.23828125 -11.91015625 C-49.14971688 -18.2804408 -20.31068699 -14.92407734 0 0 Z " fill="#FEFEFE" transform="translate(1297,129)"/>
<path d="M0 0 C77.59421446 0 77.59421446 0 101.1015625 22.875 C122.77471113 45.2787042 125.67890872 78.53781863 125.25 108.03125 C124.53358994 134.22320191 117.5309619 161.79803965 98.8828125 181.203125 C90.99571707 188.55692928 82.26955604 193.73493752 72.3125 197.75 C71.63131104 198.03174072 70.95012207 198.31348145 70.24829102 198.60375977 C47.67967066 207.2518383 23.76579052 204 0 204 C0 136.68 0 69.36 0 0 Z " fill="#FEFEFE" transform="translate(1530,119)"/>
<path d="M0 0 C2.20959253 0.15109093 4.42300047 0.24873801 6.63671875 0.31640625 C7.93544922 0.35830078 9.23417969 0.40019531 10.57226562 0.44335938 C11.94400761 0.48316987 13.31575244 0.52288216 14.6875 0.5625 C16.07097645 0.60570835 17.45444027 0.64932339 18.83789062 0.69335938 C22.22515719 0.79958028 25.61249799 0.90162358 29 1 C29 3.31 29 5.62 29 8 C24.71 8.99 20.42 9.98 16 11 C16.66 12.44375 17.32 13.8875 18 15.375 C20.8691561 22.65036011 21.01352413 28.77035959 18.5 36.1875 C15.29063747 43.31071927 10.11495698 47.37922864 3 50.375 C-2.42253099 52.19010491 -7.74989544 52.48660432 -13.4296875 52.40966797 C-17.29074183 52.4565905 -18.87982487 52.90452931 -21.9453125 55.33984375 C-24.2339173 57.86426025 -24.2339173 57.86426025 -24.5 61.125 C-23.93570992 64.36966793 -23.61969507 65.10626109 -21 67 C-18.06595354 67.45867318 -18.06595354 67.45867318 -14.71484375 67.40625 C-12.83442383 67.43912109 -12.83442383 67.43912109 -10.91601562 67.47265625 C-8.94665039 67.48619141 -8.94665039 67.48619141 -6.9375 67.5 C15.27719843 67.65589262 15.27719843 67.65589262 22.5 74.3125 C23.1290625 74.86550781 23.758125 75.41851563 24.40625 75.98828125 C29.13807329 81.96104839 28.69795985 89.78185825 28 97 C26.32563658 103.18612113 22.41527983 107.68910352 17 111 C6.92204899 115.59783215 -1.66010395 117.21184306 -12.625 117.3125 C-13.65496094 117.34150391 -14.68492188 117.37050781 -15.74609375 117.40039062 C-26.24361961 117.48621945 -34.57033587 114.93177805 -42.44140625 107.87890625 C-46.6220511 102.83908126 -46.42572537 97.37458765 -46.3125 91.09765625 C-45.74374745 85.45989664 -43.0927576 82.99975695 -39.0625 79.3125 C-36.44505774 77.33606401 -33.8597495 75.59809531 -31 74 C-31.639375 73.236875 -32.27875 72.47375 -32.9375 71.6875 C-36.15422285 67.49601265 -36.51977394 64.19773942 -36 59 C-33.94484405 55.12773705 -31.1236737 52.0412307 -28 49 C-28.79664063 48.38125 -28.79664063 48.38125 -29.609375 47.75 C-35.97246473 42.54805803 -39.49138235 38.60662275 -40.41015625 30.28515625 C-40.84895191 22.06263499 -40.25961203 14.68594749 -35 8 C-26.06815416 -0.93184584 -12.04940531 -4.01646844 0 0 Z " fill="#050505" transform="translate(1279,517)"/>
<path d="M0 0 C2.00347737 3.50827259 2.79244545 7.01303005 3.6875 10.9375 C5.43850185 18.2751122 7.71069323 25.36168871 10.14453125 32.49780273 C13.67384313 42.88478444 16.85222874 53.37674407 20.0456543 63.87084961 C21.03505086 67.11492629 22.03230072 70.35650924 23.03125 73.59765625 C24.52973186 78.46272492 26.01198377 83.33242944 27.4855957 88.20507812 C30.47207901 98.0736111 33.53357882 107.9148803 36.69067383 117.73022461 C37.46777324 120.1512498 38.23751337 122.57433613 39 125 C39.21188965 125.67160156 39.4237793 126.34320313 39.64208984 127.03515625 C40.60992817 130.23131298 41 132.60658621 41 136 C14.27 136 -12.46 136 -40 136 C-37.75094954 124.75474769 -37.75094954 124.75474769 -36.08203125 119.48828125 C-35.53651611 117.75118896 -35.53651611 117.75118896 -34.97998047 115.97900391 C-34.40207764 114.16408447 -34.40207764 114.16408447 -33.8125 112.3125 C-33.40709287 111.02542361 -33.00231708 109.73814821 -32.59814453 108.45068359 C-31.98515141 106.49803786 -31.37188677 104.54548531 -30.7567749 102.59350586 C-28.92587293 96.78176375 -27.14202234 90.95642798 -25.375 85.125 C-25.09438721 84.19977539 -24.81377441 83.27455078 -24.5246582 82.32128906 C-23.963876 80.47221465 -23.40324634 78.62309397 -22.84277344 76.77392578 C-21.98508871 73.95092061 -21.12217074 71.12956226 -20.2578125 68.30859375 C-14.60945866 49.85845544 -9.19547904 31.34244452 -3.95288086 12.77294922 C-2.73450571 8.47700405 -1.45564967 4.22343426 0 0 Z " fill="#FBFBFB" transform="translate(398,112)"/>
<path d="M0 0 C6.27 0 12.54 0 19 0 C26.2063623 17.84004549 33.16530982 35.76460808 40 53.75 C41.40935512 57.45402006 42.81989811 61.15758771 44.23046875 64.86114502 C45.09701283 67.1368953 45.96293181 69.41288374 46.828125 71.68914795 C47.21613281 72.70921936 47.60414063 73.72929077 48.00390625 74.78027344 C48.34236572 75.67083435 48.6808252 76.56139526 49.02954102 77.47894287 C49.69641334 79.21134295 50.39686778 80.93107145 51.12475586 82.63873291 C52 85 52 85 52 88 C52.66 88 53.32 88 54 88 C54.12427872 87.12378494 54.24855743 86.24756989 54.37660217 85.34480286 C54.96679113 82.17818015 55.81184421 79.47948139 56.97436523 76.4831543 C57.38246933 75.42311691 57.79057343 74.36307953 58.21104431 73.2709198 C58.65573563 72.13350845 59.10042694 70.99609711 59.55859375 69.82421875 C60.02177505 68.62682571 60.48495636 67.42943268 60.96217346 66.195755 C62.1976688 63.00254571 63.44025039 59.8121381 64.68414307 56.62219238 C65.66835708 54.09463702 66.64742407 51.5651051 67.62621117 49.03544426 C73.96915979 32.64379489 80.43754895 16.30492464 87 0 C93.27 0 99.54 0 106 0 C106 35.31 106 70.62 106 107 C102.04 107 98.08 107 94 107 C93.67 76.97 93.34 46.94 93 16 C79.15309253 51.6742025 79.15309253 51.6742025 65.375 87.375 C65.0541745 88.20814728 64.733349 89.04129456 64.40280151 89.89968872 C63.50474598 92.23231069 62.60764918 94.56529865 61.7109375 96.8984375 C61.44828598 97.58053787 61.18563446 98.26263824 60.9150238 98.96540833 C59.8920181 101.6305378 58.90291621 104.29125138 58 107 C54.37 107 50.74 107 47 107 C35 75.66666667 23 44.33333333 11 13 C11 44.02 11 75.04 11 107 C7.37 107 3.74 107 0 107 C0 71.69 0 36.38 0 0 Z " fill="#030303" transform="translate(849,491)"/>
<path d="M0 0 C2.07764782 1.98882644 3.86870207 4.01738081 5.625 6.29296875 C6.90702629 8.12685624 6.90702629 8.12685624 9 9 C9.38478516 8.10474609 9.38478516 8.10474609 9.77734375 7.19140625 C12.90802631 1.58018288 19.44089879 -1.78790327 25.44921875 -3.53125 C34.47167286 -5.18928138 43.79032266 -4.80099084 51.7421875 0.06640625 C56.64190407 3.7594762 59.8852946 8.96337116 61 15 C61.08697056 17.07762639 61.11768427 19.15786293 61.11352539 21.23730469 C61.11341209 23.12881256 61.11341209 23.12881256 61.11329651 25.05853271 C61.10819028 26.42964721 61.1029743 27.80076131 61.09765625 29.171875 C61.09579028 30.57863311 61.09436722 31.98539188 61.09336853 33.39215088 C61.08955744 37.08780727 61.0797392 40.78342413 61.06866455 44.47906494 C61.05842014 48.25296494 61.05386442 52.02687135 61.04882812 55.80078125 C61.03811563 63.20054091 61.02053027 70.60025987 61 78 C57.04 78 53.08 78 49 78 C48.98541748 76.21384277 48.97083496 74.42768555 48.95581055 72.58740234 C48.90406994 66.6720368 48.83875991 60.75690381 48.76428509 54.84178734 C48.71964371 51.25701541 48.68037434 47.67235549 48.65356445 44.08740234 C48.62746856 40.62476248 48.58702301 37.16255507 48.53681374 33.70018387 C48.51212068 31.74279832 48.50211639 29.78524523 48.49235535 27.82772827 C48.47256119 26.62693634 48.45276703 25.42614441 48.43237305 24.18896484 C48.42126999 23.13639496 48.41016693 22.08382507 48.39872742 20.99935913 C47.76808958 16.25549332 45.80113576 12.00923248 42 9 C38.36445419 7.7881514 34.97592248 7.7390198 31.1875 7.6875 C30.48818359 7.65849609 29.78886719 7.62949219 29.06835938 7.59960938 C22.79061457 7.52326636 19.31289516 9.81559901 14.75 14.125 C10.27801489 21.47183268 10.67663182 30.7792095 10.5859375 39.1328125 C10.56657135 40.25066132 10.5472052 41.36851013 10.5272522 42.52023315 C10.46795711 46.05508028 10.42127267 49.58996087 10.375 53.125 C10.33677409 55.53647174 10.29771975 57.9479305 10.2578125 60.359375 C10.16229716 66.23947664 10.07808313 72.11964209 10 78 C6.04 78 2.08 78 -2 78 C-2.0093457 76.25460937 -2.01869141 74.50921875 -2.02832031 72.7109375 C-2.06396035 66.91927944 -2.11782964 61.12794194 -2.18390274 55.33656311 C-2.22327316 51.82803584 -2.25551207 48.3197556 -2.27099609 44.81103516 C-2.28915344 40.76945442 -2.33914953 36.72879476 -2.390625 32.6875 C-2.39185364 31.4382373 -2.39308228 30.18897461 -2.39434814 28.90185547 C-2.51267264 21.8173727 -3.13663994 17.00384006 -7 11 C-10.91325878 7.5750508 -14.93243768 7.51138051 -19.9375 7.5625 C-20.62779297 7.54251953 -21.31808594 7.52253906 -22.02929688 7.50195312 C-27.17372549 7.50682936 -30.03264033 8.80847955 -34 12 C-40.60942874 18.97661923 -40.32426768 26.50579235 -40.4140625 35.6171875 C-40.43342865 36.82948029 -40.4527948 38.04177307 -40.4727478 39.290802 C-40.53239315 43.15213039 -40.57886945 47.01348883 -40.625 50.875 C-40.66319356 53.49740863 -40.70224609 56.11980491 -40.7421875 58.7421875 C-40.83808261 65.16135762 -40.92216975 71.58058646 -41 78 C-45.29 78 -49.58 78 -54 78 C-54 51.27 -54 24.54 -54 -3 C-50.7 -3 -47.4 -3 -44 -3 C-42.80712589 0.87684087 -42 3.91621923 -42 8 C-41.34 8 -40.68 8 -40 8 C-39.74605469 7.40445313 -39.49210937 6.80890625 -39.23046875 6.1953125 C-36.58952016 1.48352486 -31.65849328 -1.28457153 -26.8125 -3.375 C-17.52633317 -4.89732243 -8.1900628 -5.21577684 0 0 Z " fill="#070707" transform="translate(1463,520)"/>
<path d="M0 0 C4.09812002 3.43934081 5.43166283 7.78487347 6.5625 12.875 C6.95695506 17.76291979 6.91360604 22.63567807 6.85546875 27.53515625 C6.84986211 28.93476401 6.84559707 30.33437773 6.84260559 31.73399353 C6.83124061 35.38862838 6.80184742 39.04289622 6.76849365 42.6973877 C6.73761085 46.43818195 6.72406165 50.17903644 6.70898438 53.91992188 C6.67696796 61.23844719 6.62587521 68.55667185 6.5625 75.875 C3.5925 75.875 0.6225 75.875 -2.4375 75.875 C-3.0975 72.245 -3.7575 68.615 -4.4375 64.875 C-5.0975 64.875 -5.7575 64.875 -6.4375 64.875 C-6.81648438 65.76832031 -6.81648438 65.76832031 -7.203125 66.6796875 C-8.58916372 69.14473104 -9.92468234 70.32481328 -12.1875 72 C-12.84234375 72.49757813 -13.4971875 72.99515625 -14.171875 73.5078125 C-19.88041542 76.95262137 -25.32734709 77.23980322 -31.8125 77.25 C-32.62460937 77.27449219 -33.43671875 77.29898438 -34.2734375 77.32421875 C-41.1091533 77.35708277 -46.29150341 75.64444874 -51.4609375 71.09375 C-52.12996094 70.24296875 -52.12996094 70.24296875 -52.8125 69.375 C-53.50472656 68.52421875 -53.50472656 68.52421875 -54.2109375 67.65625 C-58.49568141 61.43381935 -57.97662495 55.25427275 -57.4375 47.875 C-56.03684516 41.44074182 -51.74983975 37.70336167 -46.75 33.75 C-36.72339303 28.07456209 -25.63207882 27.69896856 -14.375 27.8125 C-13.50939453 27.81701172 -12.64378906 27.82152344 -11.75195312 27.82617188 C-9.64710461 27.83780087 -7.54229242 27.85572927 -5.4375 27.875 C-5.26925549 16.89824149 -5.26925549 16.89824149 -10.4375 7.875 C-16.17147121 4.36440538 -21.8262835 3.9686888 -28.4375 4.875 C-32.49178248 5.93344157 -36.41857911 7.33412925 -40.34765625 8.78125 C-43.4375 9.875 -43.4375 9.875 -45.4375 9.875 C-46.4275 6.905 -47.4175 3.935 -48.4375 0.875 C-33.87201945 -6.94499161 -14.21488916 -11.07887383 0 0 Z " fill="#060606" transform="translate(1034.4375,522.125)"/>
<path d="M0 0 C4.37851995 3.67949308 7.17984146 7.5798155 9 13 C9.24050903 16.06892395 9.24050903 16.06892395 9.22705078 19.53442383 C9.22689972 20.83539505 9.22674866 22.13636627 9.22659302 23.47676086 C9.21638124 24.88685257 9.20594927 26.29694269 9.1953125 27.70703125 C9.19157959 29.15719914 9.18873393 30.60736957 9.18673706 32.05754089 C9.17912249 35.86338334 9.15949289 39.6690717 9.1373291 43.47485352 C9.11682363 47.36277177 9.10772531 51.25071506 9.09765625 55.13867188 C9.07624478 62.75918462 9.04213534 70.37957067 9 78 C6.03 78 3.06 78 0 78 C-0.99 74.7 -1.98 71.4 -3 68 C-3.54527344 68.54269531 -4.09054687 69.08539062 -4.65234375 69.64453125 C-12.83195904 77.40467909 -19.00951696 79.21282304 -30.0625 79.4375 C-30.81845459 79.46005859 -31.57440918 79.48261719 -32.35327148 79.50585938 C-38.92829039 79.47725057 -43.95387472 77.52275627 -49.0234375 73.32421875 C-54.44510386 66.75867481 -55.54325495 60.35685717 -55.375 51.93359375 C-54.78778444 47.33985538 -53.0200622 44.43609117 -50 41 C-49.27296875 40.16855469 -49.27296875 40.16855469 -48.53125 39.3203125 C-39.96218841 30.87726652 -26.97561583 29.87419854 -15.56445312 29.91210938 C-14.07848633 29.92467773 -14.07848633 29.92467773 -12.5625 29.9375 C-11.54478516 29.94201172 -10.52707031 29.94652344 -9.47851562 29.95117188 C-6.98561491 29.96287563 -4.49283926 29.97927152 -2 30 C-2.32485496 23.01266516 -2.71873414 16.78895418 -7 11 C-12.8664095 6.56442208 -18.88937878 6.32364554 -26 7 C-29.17300609 7.84819118 -32.20023109 8.87178501 -35.2734375 10.02734375 C-37.84759594 10.94563236 -40.3112072 11.53557215 -43 12 C-43.99 9.03 -44.98 6.06 -46 3 C-32.00976115 -4.65503635 -14.70477132 -7.9264458 0 0 Z " fill="#050505" transform="translate(1208,520)"/>
<path d="M0 0 C9.60449932 5.70211462 14.06971764 13.62487113 17.10546875 24.25 C17.10546875 29.86 17.10546875 35.47 17.10546875 41.25 C-1.04453125 41.25 -19.19453125 41.25 -37.89453125 41.25 C-35.48478998 56.24665353 -35.48478998 56.24665353 -25.89453125 66.25 C-14.7558768 71.77847641 -3.09199204 69.90462452 8.3125 66.125 C11.10546875 65.25 11.10546875 65.25 14.10546875 65.25 C14.10546875 68.55 14.10546875 71.85 14.10546875 75.25 C5.4614795 79.24945771 -1.15603233 80.44939467 -10.64453125 80.5 C-11.59585937 80.520625 -12.5471875 80.54125 -13.52734375 80.5625 C-23.78919267 80.61872931 -31.95969368 77.83741232 -39.89453125 71.25 C-49.19097512 61.82960355 -51.19767127 49.03349634 -51.20922852 36.3359375 C-51.01519851 24.90998102 -47.7524872 14.74911744 -39.89453125 6.25 C-28.77258888 -3.23273375 -13.57502127 -6.54875398 0 0 Z " fill="#050505" transform="translate(1595.89453125,518.75)"/>
<path d="M0 0 C7.69636336 5.25867058 12.27647602 11.96178332 14.875 20.875 C15.875 26.875 15.875 26.875 15.875 39.875 C-2.605 39.875 -21.085 39.875 -40.125 39.875 C-37.62426921 53.5221241 -37.62426921 53.5221241 -29.125 63.875 C-19.57261657 69.85015342 -9.46155439 68.33269504 1.18359375 66.5078125 C3.91271941 65.93761959 3.91271941 65.93761959 6.53515625 64.8046875 C8.875 63.875 8.875 63.875 11.875 63.875 C11.875 67.175 11.875 70.475 11.875 73.875 C3.51867942 78.47097632 -4.1460887 79.23775666 -13.5 79.25 C-14.47710938 79.27449219 -15.45421875 79.29898438 -16.4609375 79.32421875 C-27.37855656 79.36777308 -35.06880703 75.88270647 -42.92578125 68.37109375 C-53.10950787 56.81265448 -52.90281375 42.02751828 -52.3203125 27.48925781 C-51.56127099 17.32948725 -46.11407577 9.4552809 -38.875 2.625 C-27.95911011 -6.1172663 -12.12316149 -6.89766085 0 0 Z " fill="#040404" transform="translate(1373.125,520.125)"/>
<path d="M0 0 C7.69636336 5.25867058 12.27647602 11.96178332 14.875 20.875 C15.875 26.875 15.875 26.875 15.875 39.875 C-2.605 39.875 -21.085 39.875 -40.125 39.875 C-37.62426921 53.5221241 -37.62426921 53.5221241 -29.125 63.875 C-19.57261657 69.85015342 -9.46155439 68.33269504 1.18359375 66.5078125 C3.91271941 65.93761959 3.91271941 65.93761959 6.53515625 64.8046875 C8.875 63.875 8.875 63.875 11.875 63.875 C11.875 67.175 11.875 70.475 11.875 73.875 C3.51867942 78.47097632 -4.1460887 79.23775666 -13.5 79.25 C-14.47710938 79.27449219 -15.45421875 79.29898438 -16.4609375 79.32421875 C-27.37855656 79.36777308 -35.06880703 75.88270647 -42.92578125 68.37109375 C-53.10950787 56.81265448 -52.90281375 42.02751828 -52.3203125 27.48925781 C-51.56127099 17.32948725 -46.11407577 9.4552809 -38.875 2.625 C-27.95911011 -6.1172663 -12.12316149 -6.89766085 0 0 Z " fill="#040404" transform="translate(626.125,520.125)"/>
<path d="M0 0 C-1.65 3.3 -3.3 6.6 -5 10 C-6.485 9.54625 -7.97 9.0925 -9.5 8.625 C-10.42167969 8.35300781 -11.34335937 8.08101563 -12.29296875 7.80078125 C-14.47163612 7.15629812 -16.64329682 6.48815345 -18.8125 5.8125 C-29.6024141 3.24035886 -40.58580964 4.74286332 -50.1875 10.1875 C-59.19033453 16.32249611 -63.78933153 24.85170275 -66.609375 35.24609375 C-68.86796987 51.16918759 -67.53613117 66.65320806 -58 80 C-53.33341677 85.46656893 -47.08626604 89.52486373 -40 91 C-27.77902413 91.87463067 -15.80600953 91.38465802 -4 88 C-4 91.63 -4 95.26 -4 99 C-12.75854789 102.94993336 -20.41331079 103.2690165 -30 103.375 C-31.25167969 103.41238281 -32.50335938 103.44976563 -33.79296875 103.48828125 C-46.61501321 103.60786508 -57.69890228 100.04577347 -67 91 C-80.44985843 76.62444282 -81.59766448 60.04594365 -81.31640625 41.265625 C-81.06833975 34.25333521 -79.99687268 28.40778697 -77 22 C-76.649375 21.20335937 -76.29875 20.40671875 -75.9375 19.5859375 C-69.76786019 7.11812373 -59.12856399 -1.46480615 -46.0625 -5.9375 C-31.78799625 -9.24273965 -12.07933409 -9.05950057 0 0 Z " fill="#060606" transform="translate(324,496)"/>
<path d="M0 0 C9.78939172 6.88201598 15.6449809 15.94664968 17.828125 27.7109375 C19.22047781 41.56881744 17.92199697 55.26814124 9.4453125 66.78125 C3.59086022 73.76699741 -3.1340111 77.98631431 -12.38183594 78.93847656 C-21.39984333 79.52016548 -30.43032862 79.9758451 -38.171875 74.7109375 C-38.8628125 74.28683594 -39.55375 73.86273437 -40.265625 73.42578125 C-48.5217947 67.89599595 -52.82771995 60.01258727 -55.48046875 50.578125 C-57.40517306 39.81282973 -57.97601305 26.77415092 -53.171875 16.7109375 C-52.7696875 15.86402344 -52.3675 15.01710938 -51.953125 14.14453125 C-47.33137177 5.53009675 -40.30849872 -0.30191866 -31.10546875 -3.6328125 C-20.93192778 -5.90865123 -9.08199716 -5.390394 0 0 Z M-36.171875 11.7109375 C-44.56934524 22.08300668 -44.18865276 35.01646712 -43.171875 47.7109375 C-41.81979696 54.73252462 -38.79503156 61.11244502 -33.171875 65.7109375 C-26.44062564 69.79776747 -19.82736241 69.44198726 -12.171875 68.7109375 C-6.20998081 67.11206588 -2.65939074 63.79274615 0.828125 58.7109375 C6.16988886 47.83663249 6.46342073 34.17310033 4.1796875 22.35546875 C2.16554496 16.8036656 -1.30030191 12.09985791 -6.171875 8.7109375 C-15.17911949 4.88929234 -28.98553859 4.17892921 -36.171875 11.7109375 Z " fill="#070707" transform="translate(393.171875,520.2890625)"/>
<path d="M0 0 C5.38992142 4.53243392 8.49973046 10.38726393 9.75 17.3125 C10.0228231 21.91660446 9.98260384 26.51033816 9.9453125 31.12109375 C9.94157667 32.45630175 9.93873239 33.79151251 9.93673706 35.12672424 C9.92914541 38.62018566 9.90953606 42.11347755 9.8873291 45.60687256 C9.86677371 49.17994901 9.85771473 52.75305318 9.84765625 56.32617188 C9.82628532 63.32169073 9.79114028 70.31706974 9.75 77.3125 C5.79 77.3125 1.83 77.3125 -2.25 77.3125 C-2.26458252 75.62769531 -2.27916504 73.94289063 -2.29418945 72.20703125 C-2.34601923 66.61496979 -2.41135222 61.02317289 -2.48571491 55.43136597 C-2.53027556 52.04394958 -2.56956199 48.6566495 -2.59643555 45.26904297 C-2.63008992 41.36656748 -2.68241401 37.46471308 -2.73828125 33.5625 C-2.74467117 32.35698486 -2.7510611 31.15146973 -2.75764465 29.90942383 C-2.89672801 21.89516547 -3.36660003 15.59420747 -8.8515625 9.3515625 C-13.29104127 6.68787524 -16.54578292 6.56770714 -21.625 6.6875 C-22.43710938 6.66816406 -23.24921875 6.64882813 -24.0859375 6.62890625 C-30.20699862 6.67795321 -34.58427727 8.29723026 -39.25 12.3125 C-43.19913303 17.41169868 -44.35217437 22.41687559 -44.45532227 28.72363281 C-44.47526749 29.80445129 -44.49521271 30.88526978 -44.51576233 31.99884033 C-44.54083107 33.73964874 -44.54083107 33.73964874 -44.56640625 35.515625 C-44.58718735 36.70855164 -44.60796844 37.90147827 -44.62937927 39.1305542 C-44.69476239 42.94114423 -44.75370776 46.75180314 -44.8125 50.5625 C-44.85569589 53.14584046 -44.89931052 55.72917395 -44.94335938 58.3125 C-45.05043237 64.64576274 -45.15173174 70.97909477 -45.25 77.3125 C-49.54 77.3125 -53.83 77.3125 -58.25 77.3125 C-58.25 50.5825 -58.25 23.8525 -58.25 -3.6875 C-54.95 -3.6875 -51.65 -3.6875 -48.25 -3.6875 C-47.05712589 0.18934087 -46.25 3.22871923 -46.25 7.3125 C-45.59 7.3125 -44.93 7.3125 -44.25 7.3125 C-44.00765625 6.71695313 -43.7653125 6.12140625 -43.515625 5.5078125 C-42.00689849 2.89082393 -40.52261321 1.82634056 -38 0.1875 C-37.25234375 -0.31007813 -36.5046875 -0.80765625 -35.734375 -1.3203125 C-24.38448075 -7.56632349 -11.0804598 -5.75331566 0 0 Z " fill="#0A0A0A" transform="translate(1124.25,520.6875)"/>
<path d="M0 0 C5.38992142 4.53243392 8.49973046 10.38726393 9.75 17.3125 C10.0228231 21.91660446 9.98260384 26.51033816 9.9453125 31.12109375 C9.94157667 32.45630175 9.93873239 33.79151251 9.93673706 35.12672424 C9.92914541 38.62018566 9.90953606 42.11347755 9.8873291 45.60687256 C9.86677371 49.17994901 9.85771473 52.75305318 9.84765625 56.32617188 C9.82628532 63.32169073 9.79114028 70.31706974 9.75 77.3125 C5.79 77.3125 1.83 77.3125 -2.25 77.3125 C-2.26458252 75.62769531 -2.27916504 73.94289063 -2.29418945 72.20703125 C-2.34601923 66.61496979 -2.41135222 61.02317289 -2.48571491 55.43136597 C-2.53027556 52.04394958 -2.56956199 48.6566495 -2.59643555 45.26904297 C-2.63008992 41.36656748 -2.68241401 37.46471308 -2.73828125 33.5625 C-2.74467117 32.35698486 -2.7510611 31.15146973 -2.75764465 29.90942383 C-2.89672801 21.89516547 -3.36660003 15.59420747 -8.8515625 9.3515625 C-13.29104127 6.68787524 -16.54578292 6.56770714 -21.625 6.6875 C-22.43710937 6.66816406 -23.24921875 6.64882813 -24.0859375 6.62890625 C-30.20699862 6.67795321 -34.58427727 8.29723026 -39.25 12.3125 C-43.19913303 17.41169868 -44.35217437 22.41687559 -44.45532227 28.72363281 C-44.47526749 29.80445129 -44.49521271 30.88526978 -44.51576233 31.99884033 C-44.54083107 33.73964874 -44.54083107 33.73964874 -44.56640625 35.515625 C-44.58718735 36.70855164 -44.60796844 37.90147827 -44.62937927 39.1305542 C-44.69476239 42.94114423 -44.75370776 46.75180314 -44.8125 50.5625 C-44.85569589 53.14584046 -44.89931052 55.72917395 -44.94335938 58.3125 C-45.05043237 64.64576274 -45.15173174 70.97909477 -45.25 77.3125 C-49.54 77.3125 -53.83 77.3125 -58.25 77.3125 C-58.25 50.5825 -58.25 23.8525 -58.25 -3.6875 C-54.95 -3.6875 -51.65 -3.6875 -48.25 -3.6875 C-47.05712589 0.18934087 -46.25 3.22871923 -46.25 7.3125 C-45.59 7.3125 -44.93 7.3125 -44.25 7.3125 C-44.00765625 6.71695313 -43.7653125 6.12140625 -43.515625 5.5078125 C-42.00689849 2.89082393 -40.52261321 1.82634056 -38 0.1875 C-37.25234375 -0.31007813 -36.5046875 -0.80765625 -35.734375 -1.3203125 C-24.38448075 -7.56632349 -11.0804598 -5.75331566 0 0 Z " fill="#0A0A0A" transform="translate(720.25,520.6875)"/>
<path d="M0 0 C5.38992142 4.53243392 8.49973046 10.38726393 9.75 17.3125 C10.0228231 21.91660446 9.98260384 26.51033816 9.9453125 31.12109375 C9.94157667 32.45630175 9.93873239 33.79151251 9.93673706 35.12672424 C9.92914541 38.62018566 9.90953606 42.11347755 9.8873291 45.60687256 C9.86677371 49.17994901 9.85771473 52.75305318 9.84765625 56.32617188 C9.82628532 63.32169073 9.79114028 70.31706974 9.75 77.3125 C5.79 77.3125 1.83 77.3125 -2.25 77.3125 C-2.26458252 75.62769531 -2.27916504 73.94289063 -2.29418945 72.20703125 C-2.34601923 66.61496979 -2.41135222 61.02317289 -2.48571491 55.43136597 C-2.53027556 52.04394958 -2.56956199 48.6566495 -2.59643555 45.26904297 C-2.63008992 41.36656748 -2.68241401 37.46471308 -2.73828125 33.5625 C-2.74467117 32.35698486 -2.7510611 31.15146973 -2.75764465 29.90942383 C-2.89672801 21.89516547 -3.36660003 15.59420747 -8.8515625 9.3515625 C-13.29104127 6.68787524 -16.54578292 6.56770714 -21.625 6.6875 C-22.43710937 6.66816406 -23.24921875 6.64882813 -24.0859375 6.62890625 C-30.20699862 6.67795321 -34.58427727 8.29723026 -39.25 12.3125 C-43.19913303 17.41169868 -44.35217437 22.41687559 -44.45532227 28.72363281 C-44.47526749 29.80445129 -44.49521271 30.88526978 -44.51576233 31.99884033 C-44.54083107 33.73964874 -44.54083107 33.73964874 -44.56640625 35.515625 C-44.58718735 36.70855164 -44.60796844 37.90147827 -44.62937927 39.1305542 C-44.69476239 42.94114423 -44.75370776 46.75180314 -44.8125 50.5625 C-44.85569589 53.14584046 -44.89931052 55.72917395 -44.94335938 58.3125 C-45.05043237 64.64576274 -45.15173174 70.97909477 -45.25 77.3125 C-49.54 77.3125 -53.83 77.3125 -58.25 77.3125 C-58.25 50.5825 -58.25 23.8525 -58.25 -3.6875 C-54.95 -3.6875 -51.65 -3.6875 -48.25 -3.6875 C-47.05712589 0.18934087 -46.25 3.22871923 -46.25 7.3125 C-45.59 7.3125 -44.93 7.3125 -44.25 7.3125 C-44.00765625 6.71695313 -43.7653125 6.12140625 -43.515625 5.5078125 C-42.00689849 2.89082393 -40.52261321 1.82634056 -38 0.1875 C-37.25234375 -0.31007813 -36.5046875 -0.80765625 -35.734375 -1.3203125 C-24.38448075 -7.56632349 -11.0804598 -5.75331566 0 0 Z " fill="#0A0A0A" transform="translate(490.25,520.6875)"/>
<path d="M0 0 C6.63195435 4.10976322 9.59055743 9.77167228 12 17 C12.0890016 19.00904644 12.11760452 21.02096968 12.11352539 23.03198242 C12.11341209 24.89357246 12.11341209 24.89357246 12.11329651 26.79277039 C12.10818991 28.14700358 12.10297391 29.50123637 12.09765625 30.85546875 C12.09579083 32.24123585 12.09436751 33.62700361 12.09336853 35.01277161 C12.0895531 38.6574791 12.07973113 42.30214665 12.06866455 45.94683838 C12.0584295 49.66702738 12.05386642 53.38722285 12.04882812 57.10742188 C12.03810798 64.40496822 12.02051907 71.70247342 12 79 C8.04 79 4.08 79 0 79 C-0.0093457 77.25460937 -0.01869141 75.50921875 -0.02832031 73.7109375 C-0.06396035 67.91927944 -0.11782964 62.12794194 -0.18390274 56.33656311 C-0.22327316 52.82803584 -0.25551207 49.3197556 -0.27099609 45.81103516 C-0.28915344 41.76945442 -0.33914953 37.72879476 -0.390625 33.6875 C-0.39185364 32.4382373 -0.39308228 31.18897461 -0.39434814 29.90185547 C-0.5124642 22.82985243 -1.09877643 17.97434833 -5 12 C-9.4198689 8.8277253 -13.64137157 8.53481049 -18.9375 8.625 C-19.95360352 8.60759766 -19.95360352 8.60759766 -20.99023438 8.58984375 C-26.92255219 8.62397022 -31.36312205 10.11651575 -36.1875 13.5625 C-41.85832402 21.18878058 -42.59913365 29.33706279 -42.609375 38.5703125 C-42.62591125 39.73255341 -42.64244751 40.89479431 -42.65948486 42.09225464 C-42.70770176 45.7698916 -42.72927817 49.44711582 -42.75 53.125 C-42.77818154 55.63283297 -42.80811199 58.14064694 -42.83984375 60.6484375 C-42.91345421 66.76559099 -42.96318976 72.88251887 -43 79 C-46.96 79 -50.92 79 -55 79 C-55 52.6 -55 26.2 -55 -1 C-51.7 -1 -48.4 -1 -45 -1 C-43.8422494 2.47325181 -43.93133348 5.36067448 -44 9 C-43.5153125 8.54109375 -43.030625 8.0821875 -42.53125 7.609375 C-30.82181719 -3.10925965 -14.97306441 -7.21429467 0 0 Z " fill="#030303" transform="translate(1689,519)"/>
<path d="M0 0 C2.64 0 5.28 0 8 0 C8 5.94 8 11.88 8 18 C15.59 18 23.18 18 31 18 C31 21.3 31 24.6 31 28 C23.41 28 15.82 28 8 28 C8.06884506 35.59920172 8.15679866 43.19785157 8.26245117 50.79663086 C8.29570111 53.38152954 8.32373277 55.96650084 8.34643555 58.55151367 C8.37997927 62.26773009 8.43229728 65.98328101 8.48828125 69.69921875 C8.49467117 70.85459641 8.5010611 72.00997406 8.50764465 73.20036316 C8.52743881 74.28110611 8.54723297 75.36184906 8.56762695 76.4753418 C8.57873001 77.42354294 8.58983307 78.37174408 8.60127258 79.34867859 C9.08038435 82.53451239 10.11087553 84.40637503 12 87 C15.04681061 89.03120707 15.60118324 89.24659875 19.01171875 89.1953125 C19.76904297 89.18886719 20.52636719 89.18242188 21.30664062 89.17578125 C22.09232422 89.15902344 22.87800781 89.14226562 23.6875 89.125 C24.48478516 89.11597656 25.28207031 89.10695313 26.10351562 89.09765625 C28.069139 89.07411585 30.03460775 89.03824547 32 89 C32 91.97 32 94.94 32 98 C27.33733097 100.33133451 24.27520887 100.36673402 19.1875 100.375 C18.40568359 100.39949219 17.62386719 100.42398438 16.81835938 100.44921875 C10.32404976 100.48177168 6.2143973 98.87603969 1.29296875 94.47265625 C-2.64879371 89.44447162 -4.25535615 85.58281252 -4.22705078 79.19995117 C-4.22682419 77.48874336 -4.22682419 77.48874336 -4.22659302 75.7429657 C-4.21627045 74.52196671 -4.20594788 73.30096771 -4.1953125 72.04296875 C-4.1924826 70.78486893 -4.18965271 69.5267691 -4.18673706 68.23054504 C-4.17745121 64.89812618 -4.15950476 61.56598453 -4.1373291 58.23364258 C-4.11681017 54.82831203 -4.10772246 51.42295277 -4.09765625 48.01757812 C-4.07561637 41.34496595 -4.04109668 34.67252092 -4 28 C-7.96 28 -11.92 28 -16 28 C-16 26.02 -16 24.04 -16 22 C-14.37750059 21.16180842 -12.75191503 20.3295884 -11.125 19.5 C-10.22007812 19.0359375 -9.31515625 18.571875 -8.3828125 18.09375 C-6 17 -6 17 -4 17 C-3.8453125 15.576875 -3.8453125 15.576875 -3.6875 14.125 C-3.0089081 9.26508446 -1.4914524 4.66196126 0 0 Z " fill="#070707" transform="translate(760,499)"/>
<path d="M0 0 C2.64 0 5.28 0 8 0 C8 5.94 8 11.88 8 18 C15.59 18 23.18 18 31 18 C31 21.3 31 24.6 31 28 C23.41 28 15.82 28 8 28 C8.06884506 35.59920172 8.15679866 43.19785157 8.26245117 50.79663086 C8.29570111 53.38152954 8.32373277 55.96650084 8.34643555 58.55151367 C8.37997927 62.26773009 8.43229728 65.98328101 8.48828125 69.69921875 C8.49467117 70.85459641 8.5010611 72.00997406 8.50764465 73.20036316 C8.52743881 74.28110611 8.54723297 75.36184906 8.56762695 76.4753418 C8.57873001 77.42354294 8.58983307 78.37174408 8.60127258 79.34867859 C9.08038435 82.53451239 10.11087553 84.40637503 12 87 C15.04681061 89.03120707 15.60118324 89.24659875 19.01171875 89.1953125 C19.76904297 89.18886719 20.52636719 89.18242188 21.30664062 89.17578125 C22.09232422 89.15902344 22.87800781 89.14226562 23.6875 89.125 C24.48478516 89.11597656 25.28207031 89.10695313 26.10351562 89.09765625 C28.069139 89.07411585 30.03460775 89.03824547 32 89 C32 91.97 32 94.94 32 98 C27.33733097 100.33133451 24.27520887 100.36673402 19.1875 100.375 C18.40568359 100.39949219 17.62386719 100.42398438 16.81835938 100.44921875 C10.32404976 100.48177168 6.2143973 98.87603969 1.29296875 94.47265625 C-2.64879371 89.44447162 -4.25535615 85.58281252 -4.22705078 79.19995117 C-4.22682419 77.48874336 -4.22682419 77.48874336 -4.22659302 75.7429657 C-4.21627045 74.52196671 -4.20594788 73.30096771 -4.1953125 72.04296875 C-4.1924826 70.78486893 -4.18965271 69.5267691 -4.18673706 68.23054504 C-4.17745121 64.89812618 -4.15950476 61.56598453 -4.1373291 58.23364258 C-4.11681017 54.82831203 -4.10772246 51.42295277 -4.09765625 48.01757812 C-4.07561637 41.34496595 -4.04109668 34.67252092 -4 28 C-7.96 28 -11.92 28 -16 28 C-16 26.02 -16 24.04 -16 22 C-14.37750059 21.16180842 -12.75191503 20.3295884 -11.125 19.5 C-10.22007812 19.0359375 -9.31515625 18.571875 -8.3828125 18.09375 C-6 17 -6 17 -4 17 C-3.8453125 15.576875 -3.8453125 15.576875 -3.6875 14.125 C-3.0089081 9.26508446 -1.4914524 4.66196126 0 0 Z " fill="#070707" transform="translate(530,499)"/>
<path d="M0 0 C2.31 0 4.62 0 7 0 C7 5.94 7 11.88 7 18 C14.92 18 22.84 18 31 18 C31 21.3 31 24.6 31 28 C23.08 28 15.16 28 7 28 C7.0740897 35.13560479 7.15700705 42.26997729 7.26245117 49.4050293 C7.29564466 51.83074498 7.32369384 54.25653686 7.34643555 56.68237305 C7.38008331 60.17529684 7.43240631 63.66752585 7.48828125 67.16015625 C7.49467117 68.23959 7.5010611 69.31902374 7.50764465 70.4311676 C7.6382314 77.16384299 8.08731584 82.64496895 12.671875 87.92578125 C16.13881981 89.52546216 19.51684174 89.31611588 23.25 89.1875 C23.99507812 89.17396484 24.74015625 89.16042969 25.5078125 89.14648438 C27.33885416 89.11127204 29.16952169 89.05746851 31 89 C31 92.3 31 95.6 31 99 C23.05886555 100.98528361 11.41685249 102.20020528 4.125 97.875 C-1.02575657 93.70756968 -3.83038834 88.46878655 -5 82 C-5.26518575 77.83254722 -5.23294445 73.67831708 -5.1953125 69.50390625 C-5.1924826 68.31522446 -5.18965271 67.12654266 -5.18673706 65.90184021 C-5.17558206 62.12195582 -5.15048566 58.34231224 -5.125 54.5625 C-5.11496417 51.99284197 -5.10583937 49.42318022 -5.09765625 46.85351562 C-5.07565797 40.56891826 -5.04116001 34.2844999 -5 28 C-8.63 28 -12.26 28 -16 28 C-16 26.02 -16 24.04 -16 22 C-15.31292969 21.74347656 -14.62585937 21.48695313 -13.91796875 21.22265625 C-8.56045675 19.06909253 -8.56045675 19.06909253 -4.7734375 14.9453125 C-4.0492803 12.64551657 -3.51462619 10.35480468 -3 8 C-2.46297503 6.46998547 -1.9017661 4.94816401 -1.3125 3.4375 C-0.879375 2.303125 -0.44625 1.16875 0 0 Z " fill="#050505" transform="translate(1732,499)"/>
<path d="M0 0 C1.84851562 -0.01063477 1.84851562 -0.01063477 3.734375 -0.02148438 C18.10389736 0.07873225 18.10389736 0.07873225 23.67993164 4.88574219 C26.10887865 7.74100152 25.45779434 11.13467567 25.33984375 14.7109375 C24.85010376 18.64011579 23.7629357 20.60549091 21 23.4375 C10.95061336 30.12968004 -1.33645203 30.55069952 -13 29.4375 C-18.07701992 28.28452515 -20.98752914 26.49935969 -24.5625 22.75 C-26.42653695 18.45461051 -26.79436431 15.04646793 -26 10.4375 C-23.87255117 5.73938384 -21.19952319 3.48797284 -16.56835938 1.2644043 C-11.19705177 -0.4649321 -5.58554506 -0.09056062 0 0 Z " fill="#F9F9F9" transform="translate(1270,595.5625)"/>
<path d="M0 0 C4.2176994 3.13623801 7.07690673 6.71027525 8.4375 11.8125 C9.22282676 18.69005856 8.45862173 24.08377863 4.4375 29.8125 C-0.72546923 34.81412644 -7.39578616 34.15339774 -14.203125 34.08984375 C-19.83577507 33.62482264 -22.11103455 31.26396545 -25.9375 27.4375 C-28.71436956 21.24294482 -28.76059158 14.03063307 -26.90234375 7.48828125 C-25.11488101 3.92109371 -22.38191216 1.25725892 -18.8203125 -0.53125 C-12.67741109 -2.31672999 -6.01882046 -2.00627349 0 0 Z " fill="#FAFAFA" transform="translate(1278.5625,526.1875)"/>
<path d="M0 0 C1.01771484 0.00902344 2.03542969 0.01804687 3.08398438 0.02734375 C5.57707156 0.05075302 8.06965859 0.083543 10.5625 0.125 C11.32754514 16.87098796 11.32754514 16.87098796 5.7578125 23.1640625 C-0.14701482 28.57867774 -4.78607343 30.41854052 -12.875 30.5 C-14.15246094 30.52835938 -15.42992187 30.55671875 -16.74609375 30.5859375 C-21.03038341 30.050968 -23.11733814 28.83393913 -26.4375 26.125 C-28.78443138 22.60460293 -28.76473764 20.92442991 -28.8125 16.75 C-28.84085938 15.62851562 -28.86921875 14.50703125 -28.8984375 13.3515625 C-28.34397822 9.47034755 -27.15729959 7.89416074 -24.4375 5.125 C-16.41687693 0.31262616 -9.11721833 -0.15422751 0 0 Z " fill="#FBFBFB" transform="translate(1018.4375,558.875)"/>
<path d="M0 0 C0.80678343 15.95638341 0.80678343 15.95638341 -4 22 C-8.56499814 26.82461889 -12.81350546 29.69918932 -19.55859375 30.3359375 C-21.47865234 30.35527344 -21.47865234 30.35527344 -23.4375 30.375 C-24.71496094 30.40335938 -25.99242187 30.43171875 -27.30859375 30.4609375 C-31.59288341 29.925968 -33.67983814 28.70893913 -37 26 C-40.14219033 21.2867145 -39.77738484 16.5058816 -39 11 C-36.92220692 6.21683553 -33.12185611 3.7134121 -28.5 1.5625 C-19.49312019 -1.38954568 -9.35606495 -0.32189717 0 0 Z " fill="#FBFBFB" transform="translate(1205,559)"/>
<path d="M0 0 C4.68049519 3.32304299 6.87569938 7.86202412 8.68359375 13.1953125 C8.68359375 15.8353125 8.68359375 18.4753125 8.68359375 21.1953125 C-5.17640625 21.1953125 -19.03640625 21.1953125 -33.31640625 21.1953125 C-32.30070792 12.05402751 -31.08003636 7.29747399 -24.31640625 1.3203125 C-16.71543807 -4.06370663 -8.19565151 -4.71620992 0 0 Z " fill="#FAFAFA" transform="translate(1591.31640625,528.8046875)"/>
<path d="M0 0 C4.41274127 3.04689278 8.73026078 6.68091274 10.25 12 C10.72662647 15.57469853 10.625 19.20616635 10.625 22.8125 C-2.905 22.8125 -16.435 22.8125 -30.375 22.8125 C-30.375 15.42509887 -29.46268979 11.7582306 -25.375 5.8125 C-18.17313776 -1.13715695 -9.63098322 -3.38867928 0 0 Z " fill="#FBFBFB" transform="translate(1364.375,527.1875)"/>
<path d="M0 0 C4.41274127 3.04689278 8.73026078 6.68091274 10.25 12 C10.72662647 15.57469853 10.625 19.20616635 10.625 22.8125 C-2.905 22.8125 -16.435 22.8125 -30.375 22.8125 C-30.375 15.42509887 -29.46268979 11.7582306 -25.375 5.8125 C-18.17313776 -1.13715695 -9.63098322 -3.38867928 0 0 Z " fill="#FBFBFB" transform="translate(617.375,527.1875)"/>
</svg>
